<?xml version="1.0" standalone="no"?>
<!DOCTYPE svg PUBLIC "-//W3C//DTD SVG 20010904//EN"
 "http://www.w3.org/TR/2001/REC-SVG-20010904/DTD/svg10.dtd">
<svg version="1.0" xmlns="http://www.w3.org/2000/svg"
 width="1280.000000pt" height="720.000000pt" viewBox="0 0 1280.000000 720.000000"
 preserveAspectRatio="xMidYMid meet">
<metadata>
Created by potrace 1.16, written by Peter Selinger 2001-2019
</metadata>
<g transform="translate(0.000000,720.000000) scale(0.100000,-0.100000)"
fill="#000000" stroke="none">
<path d="M0 3600 l0 -3600 860 0 860 0 1 23 c3 100 9 209 14 245 7 46 29 67
83 78 18 4 32 10 32 15 0 5 5 9 10 9 22 0 8 -20 -17 -26 -48 -12 -84 -34 -93
-59 -5 -13 -11 -82 -14 -154 l-6 -131 1773 0 1772 0 34 113 c44 145 110 346
121 372 5 11 21 48 36 83 15 34 28 61 30 59 2 -2 -12 -41 -32 -88 -33 -77
-174 -507 -174 -529 0 -7 1294 -10 3755 -10 l3755 0 0 710 c0 696 0 710 -19
710 -11 0 -22 4 -25 9 -3 4 6 6 19 3 20 -3 25 0 25 17 0 17 -5 21 -25 17 -34
-6 -46 -15 -39 -29 5 -8 3 -8 -7 1 -20 19 5 35 64 41 4 1 7 23 7 50 l0 50
-233 -2 c-205 -2 -236 0 -259 15 -32 21 -36 46 -43 283 -3 94 -8 201 -11 239
-5 81 8 132 38 142 28 9 135 13 341 13 l167 1 0 36 0 37 -117 -7 c-65 -3 -206
-9 -313 -12 l-195 -6 -255 46 c-201 37 -272 47 -338 44 -45 -2 -82 0 -82 5 0
4 39 7 88 7 60 0 164 -14 332 -45 276 -51 313 -52 663 -33 l217 12 0 2423 0
2423 -6400 0 -6400 0 0 -3600z m3534 2565 c25 -38 46 -75 46 -81 0 -6 7 -18
16 -25 9 -7 20 -22 25 -34 11 -24 23 -44 67 -108 17 -26 32 -51 32 -55 0 -5
16 -27 35 -49 36 -42 42 -72 25 -123 -6 -17 -7 -10 -3 23 5 42 2 52 -20 75
-14 15 -33 41 -44 58 -30 50 -87 144 -103 169 -8 13 -36 59 -62 102 -58 95
-114 184 -126 198 -5 6 -7 16 -4 24 2 7 19 -13 37 -46 18 -32 53 -89 79 -128z
m-739 -575 c240 -11 283 -19 303 -51 8 -12 9 -19 4 -15 -5 3 -15 -13 -21 -36
-14 -46 -41 -81 -41 -54 0 9 4 16 9 16 10 0 31 54 31 81 0 30 -55 39 -330 50
-259 11 -272 11 -406 -11 -151 -25 -190 -39 -203 -73 -9 -22 3 -199 14 -217
10 -17 7 -244 -4 -280 -15 -47 -14 -109 2 -156 7 -22 12 -50 11 -64 -1 -14 -7
-97 -13 -185 -6 -88 -14 -182 -16 -210 -3 -27 -9 -140 -15 -250 -5 -110 -14
-267 -20 -350 -5 -82 -19 -307 -30 -500 -11 -192 -25 -422 -30 -510 -30 -479
-50 -834 -60 -1025 -6 -118 -13 -244 -15 -280 -3 -36 -9 -175 -15 -310 -5
-135 -12 -270 -15 -300 -2 -30 -7 -129 -10 -220 -7 -202 -12 -245 -30 -260
-13 -11 -13 -8 -1 21 9 22 16 99 20 219 3 102 8 210 11 240 3 30 10 165 15
300 6 135 12 274 15 310 2 36 9 162 15 280 10 191 30 546 60 1025 5 88 19 318
30 510 11 193 25 418 30 500 6 83 15 240 20 350 6 110 12 223 15 250 2 28 10
122 16 210 6 88 12 171 13 185 1 14 -4 41 -11 60 -15 44 -16 114 -2 160 13 44
14 233 0 303 -9 49 -16 146 -13 194 3 37 45 54 185 78 155 27 191 28 482 15z
m238 -182 c7 -11 0 -41 -29 -109 -40 -98 -45 -145 -35 -304 5 -64 -6 -104 -35
-135 -22 -24 -24 -36 -39 -315 -8 -159 -22 -402 -30 -540 -8 -137 -19 -349
-25 -470 -7 -121 -13 -242 -15 -270 -3 -27 -9 -147 -15 -265 -5 -118 -12 -237
-15 -265 -3 -27 -7 -104 -10 -170 -8 -191 -24 -495 -35 -685 -17 -274 -19
-311 -24 -375 -3 -33 -7 -112 -11 -175 -3 -63 -8 -117 -11 -119 -5 -5 2 168
12 294 5 64 7 100 24 375 11 190 27 494 35 685 3 66 7 143 10 170 3 28 10 147
15 265 6 118 12 238 15 265 2 28 8 147 14 265 6 118 18 332 26 475 18 311 45
803 45 821 0 7 10 25 23 41 37 45 49 102 36 164 -17 79 -6 162 36 272 35 95
36 99 18 113 -11 10 -13 14 -4 12 8 -3 19 -11 24 -20z m5749 -90 c74 2 161 -4
210 -12 46 -8 106 -13 133 -12 28 1 61 -2 75 -7 14 -5 96 -11 182 -12 126 -3
159 -1 168 11 7 7 16 12 20 9 5 -3 11 -1 15 5 3 5 14 10 23 9 12 0 9 -4 -8
-11 -14 -6 -28 -12 -32 -12 -3 -1 -10 -5 -15 -9 -4 -5 19 -8 52 -7 94 3 398
-8 448 -15 25 -4 53 -3 62 3 10 5 33 6 54 1 20 -4 133 -10 251 -13 118 -3 274
-8 345 -11 129 -6 499 -16 647 -19 43 0 78 -4 78 -8 0 -3 -39 -5 -87 -3 -49 2
-180 6 -293 9 -113 3 -266 8 -340 11 -74 3 -232 8 -350 11 -118 3 -231 9 -251
13 -21 5 -44 4 -54 -1 -9 -6 -37 -7 -62 -3 -48 7 -246 13 -608 19 -121 2 -231
8 -245 13 -14 5 -47 8 -75 7 -27 -1 -87 4 -133 12 -50 9 -134 13 -210 12 -70
-1 -176 1 -237 6 -295 23 -624 -65 -879 -235 -223 -150 -436 -421 -551 -704
-20 -49 -42 -94 -49 -100 -19 -15 -41 -61 -71 -153 -27 -81 -27 -83 -9 -103
14 -15 20 -41 22 -95 l4 -73 -57 -27 c-37 -18 -61 -37 -69 -53 -6 -14 -21 -40
-34 -57 -13 -17 -37 -69 -54 -115 -37 -102 -44 -198 -29 -384 20 -233 33 -318
54 -345 33 -44 47 -91 47 -161 0 -76 9 -90 75 -120 55 -26 63 -24 79 16 17 39
14 39 87 25 76 -14 109 -29 109 -50 0 -14 -11 -20 -52 -25 -239 -31 -441 -75
-628 -135 -220 -71 -261 -173 -255 -625 1 -104 -2 -208 -7 -230 -10 -44 8 -32
-262 -173 -102 -53 -215 -156 -247 -225 -11 -23 -23 -49 -28 -57 -33 -59 -54
-100 -70 -135 -18 -41 -51 -77 -51 -57 0 6 4 14 10 17 5 3 20 27 33 53 110
219 121 237 187 302 46 45 94 80 156 112 49 26 126 66 171 89 46 24 85 50 89
59 4 8 8 143 9 300 3 304 5 316 60 437 34 74 83 105 234 152 190 60 273 77
599 126 23 4 42 10 42 14 0 24 -143 59 -165 41 -7 -6 -16 -22 -19 -35 -8 -32
-32 -32 -101 0 -60 29 -65 39 -65 136 0 56 -4 72 -32 115 -35 55 -40 81 -63
319 -21 227 -20 346 4 393 11 21 27 63 36 94 9 31 29 73 45 94 17 20 30 43 30
50 0 8 27 27 60 44 l60 30 0 59 c0 44 -5 65 -21 85 -20 25 -20 30 -8 74 24 86
67 194 83 205 9 7 34 56 56 110 49 116 86 186 153 287 179 267 375 432 642
539 137 55 220 75 440 105 17 3 93 2 170 -2 77 -3 197 -5 267 -4z m-446 -56
c7 -4 -29 -7 -80 -8 -71 0 -116 -7 -206 -33 -165 -46 -407 -164 -377 -183 9
-6 9 -8 0 -8 -52 -1 26 59 162 124 165 79 451 141 501 108z m269 -43 c2 -2
-99 -4 -223 -4 -215 0 -232 -1 -332 -27 -58 -16 -144 -44 -190 -64 -114 -48
-129 -51 -45 -10 88 44 179 72 312 100 94 19 126 20 290 15 101 -4 185 -8 188
-10z m1285 -3 c157 -4 332 -9 390 -11 58 -2 202 -7 320 -10 118 -3 350 -10
514 -16 164 -6 315 -8 335 -4 28 5 33 4 24 -6 -9 -9 -87 -9 -355 0 -189 6
-426 14 -528 16 -102 3 -241 8 -310 10 -69 2 -246 7 -395 11 -148 3 -367 9
-485 13 -118 3 -231 4 -250 1 l-35 -5 36 -27 c19 -15 52 -34 72 -43 66 -27
187 -116 187 -136 0 -21 43 -65 105 -106 22 -14 59 -54 81 -87 23 -34 47 -60
54 -58 10 2 10 -1 0 -14 -13 -14 -12 -19 7 -34 12 -10 20 -20 17 -22 -2 -3 0
-17 5 -32 18 -47 2 -28 -26 32 -43 89 -105 178 -138 198 -49 30 -115 95 -115
114 0 19 -124 109 -187 135 -50 21 -105 64 -100 78 6 19 61 22 282 16 116 -4
338 -10 495 -13z m-1408 -25 c21 -1 26 -6 25 -22 -2 -29 -24 -35 -155 -43
-126 -7 -230 -30 -345 -75 -43 -17 -84 -31 -92 -31 -19 0 -127 -53 -212 -104
-66 -39 -132 -97 -308 -271 -40 -40 -71 -83 -93 -128 -18 -38 -50 -99 -72
-135 -25 -41 -40 -78 -40 -99 0 -36 -15 -42 -65 -23 -31 12 -31 10 31 158 54
130 176 315 269 407 61 62 210 170 300 218 182 98 441 159 645 152 47 -2 97
-4 112 -4z m578 -57 c51 -14 131 -63 104 -64 -5 0 -19 8 -30 18 -37 34 -174
66 -188 44 -3 -5 29 -24 70 -42 41 -18 73 -35 70 -37 -2 -3 -36 9 -74 26 -39
17 -75 31 -82 31 -8 0 -8 6 0 20 13 25 52 26 130 4z m726 -446 l19 -22 -29 18
c-19 12 -38 16 -58 12 -18 -3 -27 -2 -23 4 12 19 71 11 91 -12z m61 -50 c32
-25 93 -92 93 -101 0 -25 35 -87 49 -87 9 0 30 9 47 19 23 14 35 16 43 8 20
-20 12 -37 -25 -54 -34 -17 -35 -19 -29 -60 4 -31 1 -52 -14 -84 -26 -53 -26
-75 -2 -82 24 -6 61 -64 60 -92 0 -14 -3 -12 -9 9 -11 34 -50 78 -65 72 -19
-7 -16 47 7 102 16 38 19 58 12 70 -17 29 -5 58 32 75 20 10 32 22 29 28 -4 6
-12 8 -19 6 -6 -3 -28 -12 -49 -21 l-38 -16 -19 47 c-40 95 -61 124 -107 143
-13 5 -23 14 -23 20 0 13 7 13 27 -2z m-2582 -264 c-9 -14 -23 -45 -30 -68
l-14 -41 6 40 c5 40 41 111 50 101 3 -3 -2 -17 -12 -32z m-31 -136 c-9 -14
-33 -161 -28 -167 7 -7 44 31 44 45 0 7 4 15 8 18 5 3 8 -4 7 -14 -2 -23 -33
-60 -52 -60 -9 0 -13 -16 -13 -60 0 -50 3 -60 18 -60 9 0 23 -4 31 -9 9 -6 2
-8 -20 -6 l-34 2 -3 59 c-3 51 7 146 24 237 3 15 10 27 15 27 6 0 7 -5 3 -12z
m-102 -199 c-25 -64 -50 -199 -37 -199 3 0 16 22 30 50 17 33 25 67 26 102 0
29 7 71 15 93 7 22 11 29 8 15 -3 -14 -8 -59 -11 -100 -5 -78 -45 -175 -67
-167 -15 5 -8 120 10 173 22 67 45 117 50 111 3 -2 -8 -38 -24 -78z m-3996
-31 c-4 -57 -9 -130 -11 -163 -14 -227 -26 -380 -30 -384 -7 -6 -6 1 5 169 6
80 12 177 15 215 2 39 7 112 11 163 3 50 2 92 -2 92 -5 0 -26 -15 -46 -33 -33
-28 -39 -40 -47 -97 l-10 -65 5 70 c4 66 7 72 42 102 20 18 45 32 56 33 17 0
18 -7 12 -102z m94 69 c0 -7 -7 -113 -15 -237 -15 -223 -30 -467 -40 -670 -13
-245 -57 -895 -61 -899 -6 -7 -5 12 20 409 14 206 27 422 30 480 9 175 24 432
41 679 11 178 12 237 3 248 -6 8 -15 10 -19 6 -4 -4 -10 -75 -14 -156 -3 -82
-8 -154 -10 -160 -2 -7 -9 -124 -16 -260 -6 -137 -15 -261 -20 -275 -7 -22 -8
-20 -4 13 3 22 9 141 15 265 6 124 12 239 15 255 3 17 8 95 11 175 4 86 11
148 17 152 14 9 47 -9 47 -25z m5556 18 c9 -8 11 -15 5 -15 -5 0 -13 5 -16 10
-11 17 -22 11 -44 -22 -11 -18 -21 -27 -21 -20 0 21 31 62 47 62 8 0 21 -7 29
-15z m-709 -23 c-20 -22 -22 -43 -5 -60 9 -9 9 -12 -2 -13 -12 0 -12 -2 1 -7
13 -6 9 -11 -18 -29 -31 -21 -33 -21 -23 -3 6 11 15 20 20 20 4 0 7 16 4 35
-5 38 9 75 28 75 6 0 4 -8 -5 -18z m758 -22 c11 -11 38 -23 60 -28 21 -4 41
-14 43 -22 4 -12 2 -13 -9 -3 -8 6 -30 14 -51 18 -20 4 -46 18 -59 31 -27 29
-14 32 16 4z m-47 -11 c3 -12 2 -12 -7 1 -8 12 -12 12 -28 -3 -16 -14 -19 -34
-21 -138 -1 -87 -6 -127 -16 -138 -7 -9 -23 -37 -34 -62 l-20 -47 60 -31 c69
-35 106 -38 164 -12 100 45 184 226 113 244 -10 3 -26 22 -36 43 -9 22 -24 47
-32 57 -8 9 -10 17 -5 17 16 0 34 -23 34 -42 0 -9 15 -32 33 -50 45 -46 48
-58 30 -123 -34 -120 -146 -194 -251 -167 -26 7 -59 22 -74 32 -15 11 -32 20
-38 20 -13 0 -13 6 5 39 8 16 12 31 8 34 -3 4 6 22 21 41 25 33 26 42 28 152
1 103 3 118 22 135 22 21 38 21 44 -2z m318 -115 c12 -35 18 -67 13 -70 -5 -3
-5 -12 1 -22 5 -9 12 -30 15 -46 9 -43 25 -14 25 46 0 26 4 49 8 52 5 3 28 -8
52 -24 30 -20 48 -26 56 -19 16 13 63 -6 70 -28 6 -20 20 -48 42 -80 8 -13 10
-23 6 -23 -12 0 -54 66 -54 85 0 18 -45 49 -60 40 -17 -11 -11 -22 23 -44 17
-11 25 -21 17 -20 -17 0 -60 33 -60 46 0 4 -20 20 -45 35 l-45 28 0 -53 c0
-58 -15 -84 -37 -66 -7 7 -13 24 -13 39 0 17 -7 30 -17 35 -17 6 -17 7 -1 16
16 9 17 13 3 39 -8 16 -15 37 -15 46 0 9 -10 33 -22 52 -18 29 -23 32 -28 17
-3 -9 2 -40 12 -69 28 -82 24 -166 -12 -242 -17 -34 -42 -72 -55 -82 -13 -11
-22 -22 -18 -25 3 -4 -3 -19 -13 -34 -10 -15 -17 -41 -17 -58 0 -22 -1 -24 -4
-7 -2 13 -11 26 -18 28 -10 4 -4 14 18 34 41 36 32 46 -19 19 -31 -16 -54 -20
-115 -17 -53 2 -81 -1 -92 -11 -10 -7 -17 -9 -17 -4 0 18 36 40 56 32 10 -4
43 -8 73 -8 134 -2 241 115 241 263 0 66 -17 125 -43 155 -17 18 -18 23 -5 18
18 -6 33 28 20 48 -4 6 6 -4 23 -22 16 -19 39 -63 51 -99z m-464 74 c-15 -15
-15 -58 -1 -95 14 -34 13 -71 -2 -89 -6 -8 -25 -42 -41 -76 -16 -35 -40 -75
-54 -89 -21 -22 -22 -27 -10 -44 13 -18 14 -17 30 14 10 18 20 31 22 28 6 -6
-16 -49 -31 -59 -17 -13 -25 -9 -36 19 -9 24 -7 31 13 48 13 11 44 63 69 114
45 90 46 95 33 127 -17 41 -18 96 -2 112 6 6 14 9 17 7 2 -3 -1 -11 -7 -17z
m254 -30 c4 -7 3 -10 -1 -5 -10 8 -55 -31 -55 -48 0 -6 -16 -26 -35 -45 -19
-19 -35 -29 -35 -24 0 6 14 23 30 39 17 16 30 34 30 41 0 10 45 54 56 54 1 0
6 -6 10 -12z m123 -60 c6 -17 9 -33 7 -35 -2 -3 -7 5 -11 16 -3 12 -13 28 -21
36 -13 13 -14 15 -1 15 8 0 20 -14 26 -32z m-549 -83 c8 -37 -7 -102 -31 -131
-20 -25 -72 -44 -113 -43 l-41 2 46 6 c25 4 58 15 73 25 29 19 69 95 62 118
-2 7 -7 26 -10 41 -8 36 -18 29 -51 -35 -15 -29 -40 -69 -56 -89 -16 -20 -26
-39 -23 -42 5 -4 -10 -4 -34 2 -2 1 9 12 25 25 16 13 49 60 73 104 49 89 63
92 80 17z m1590 -20 c-6 -33 -12 -72 -16 -86 -5 -21 0 -29 31 -50 49 -33 99
-118 125 -214 13 -44 28 -98 34 -120 l11 -40 308 3 c310 4 338 1 337 -32 0 -6
-7 -3 -15 7 -13 18 -32 19 -327 15 l-313 -3 -25 101 c-34 135 -81 226 -137
266 -44 32 -54 59 -34 97 6 10 11 43 13 74 2 31 6 53 10 49 4 -4 3 -34 -2 -67z
m-1165 45 c3 -5 17 -10 30 -10 22 0 61 -38 50 -49 -3 -3 -12 5 -21 17 -8 12
-21 22 -28 22 -8 0 -29 7 -47 15 -27 11 -30 14 -12 15 12 0 25 -4 28 -10z
m-339 -103 c-14 -23 -33 -51 -43 -62 -10 -11 -17 -18 -16 -16 2 2 -2 10 -9 18
-8 10 -4 30 18 85 15 39 30 65 32 59 2 -6 -8 -36 -23 -67 -36 -75 -27 -90 18
-29 23 32 37 63 38 85 l2 35 4 -33 c3 -23 -3 -46 -21 -75z m867 71 c10 -10 26
-18 37 -18 13 0 22 -11 29 -36 5 -20 18 -42 28 -50 10 -7 13 -14 7 -14 -16 0
-34 24 -43 57 -4 16 -16 30 -29 33 -12 3 -31 13 -43 23 -26 23 -36 15 -21 -18
6 -14 9 -25 6 -25 -8 0 -33 64 -28 72 7 10 36 -2 57 -24z m-206 -13 c-4 -8
-11 -15 -17 -15 -6 0 -6 7 2 20 14 22 24 19 15 -5z m-1321 -62 l29 -25 -48 27
-47 26 -29 -31 c-16 -18 -35 -44 -42 -58 -7 -15 -29 -49 -48 -75 l-34 -49 -2
-271 c-2 -191 -8 -316 -21 -419 -16 -129 -17 -163 -6 -280 7 -73 16 -148 22
-167 5 -19 8 -37 6 -39 -10 -9 -27 82 -38 206 -11 117 -10 151 6 280 13 103
19 228 21 418 1 149 6 277 10 285 7 13 33 54 96 151 39 61 72 67 125 21z m754
-38 c-7 -9 -15 -13 -19 -10 -3 3 1 10 9 15 21 14 24 12 10 -5z m98 -14 c-13
-15 -25 -27 -27 -25 -7 6 29 54 40 54 6 0 0 -13 -13 -29z m-4930 -19 c-14 -15
-30 -40 -36 -57 l-11 -30 3 33 c3 31 53 98 65 87 2 -3 -7 -18 -21 -33z m5313
11 c10 1 19 5 19 10 0 4 5 5 11 1 18 -11 -9 -22 -47 -20 -19 1 -34 -3 -35 -9
-1 -5 -2 -27 -3 -47 -2 -20 -8 -44 -15 -52 -7 -8 -9 -21 -5 -28 5 -10 4 -10
-5 -2 -9 8 -8 19 4 48 9 20 13 41 10 46 -10 17 7 62 21 56 8 -3 14 2 15 12 1
16 2 16 6 0 2 -9 13 -16 24 -15z m344 -4 c17 -1 17 -2 2 -6 -10 -3 -24 0 -31
6 -8 7 -20 6 -40 -4 -16 -8 -38 -15 -50 -15 -12 1 1 9 29 19 29 10 54 15 60
10 5 -5 18 -10 30 -10z m-264 -7 c-7 -2 -18 1 -23 6 -8 8 -4 9 13 5 13 -4 18
-8 10 -11z m69 14 c0 -9 -40 -13 -46 -5 -3 5 6 9 20 9 14 0 26 -2 26 -4z m63
-48 c9 -5 17 -14 17 -21 0 -8 -3 -7 -9 2 -6 9 -34 18 -68 22 -50 5 -61 4 -80
-14 -13 -11 -25 -18 -28 -15 -4 3 5 15 19 25 20 16 36 19 78 15 29 -2 61 -9
71 -14z m-1431 -52 c15 -8 45 -12 74 -9 27 3 87 -3 134 -12 47 -10 105 -21
130 -25 47 -8 124 0 173 19 15 6 27 8 27 6 0 -9 -53 -26 -105 -35 -51 -8 -74
-5 -225 25 -47 9 -107 15 -135 12 -56 -5 -115 17 -115 42 0 13 2 13 9 3 4 -7
19 -19 33 -26z m782 2 c-15 -26 -37 -47 -45 -43 -4 3 2 16 14 29 24 26 43 34
31 14z m-134 -53 c-19 -14 -62 -34 -95 -44 -83 -24 -215 -18 -215 10 0 6 8 5
20 -1 57 -31 199 -11 270 36 46 32 63 31 20 -1z m959 -16 c-7 -4 -18 -4 -24 1
-6 5 -32 1 -63 -10 -29 -11 -59 -17 -65 -15 -7 2 -81 6 -166 9 -84 3 -155 7
-158 10 -7 6 306 -3 325 -9 8 -3 28 1 45 9 40 18 66 23 95 18 17 -3 20 -7 11
-13z m-855 -14 c-10 -8 -26 -14 -34 -15 -8 0 -1 8 15 19 34 21 48 18 19 -4z
m863 -17 c18 -25 42 -125 48 -198 4 -41 11 -95 16 -120 25 -122 28 -223 13
-369 -23 -226 -53 -326 -142 -467 -75 -121 -314 -394 -344 -394 -5 0 17 26 49
58 89 87 219 243 275 328 100 154 128 243 152 475 16 147 12 248 -14 371 -5
25 -12 84 -16 130 -3 45 -13 93 -20 105 -8 12 -14 30 -14 39 0 10 -7 26 -17
36 -9 10 -11 18 -6 18 6 0 15 -6 20 -12z m-1557 -70 c35 -3 99 -43 87 -54 -3
-4 -16 5 -29 18 -15 16 -36 25 -62 27 -43 2 -76 16 -76 32 0 5 10 3 23 -5 12
-9 38 -17 57 -18z m294 20 c94 -2 143 -6 158 -16 18 -10 19 -12 3 -6 -11 4
-73 9 -139 10 -196 6 -222 5 -243 -9 -7 -5 -13 -4 -13 1 0 12 29 24 41 16 5
-3 17 -1 26 5 10 5 21 7 24 5 4 -2 68 -5 143 -6z m188 -58 c34 -8 45 -15 41
-26 -6 -17 -24 -19 -20 -2 1 6 -10 13 -25 14 -31 3 -39 -12 -10 -18 9 -2 -5
-4 -33 -5 -44 0 -47 1 -22 9 31 11 36 28 9 28 -10 0 -29 -12 -43 -26 -21 -23
-29 -25 -73 -20 -27 3 -60 13 -73 21 -22 15 -28 15 -71 1 -56 -19 -44 -6 14
17 40 15 43 15 59 -3 10 -11 37 -22 62 -26 41 -6 48 -4 75 24 17 17 38 29 47
26 9 -2 37 -9 63 -14z m808 2 c99 -17 105 -19 123 -50 l18 -31 -25 -6 c-74
-15 -81 -16 -66 -5 8 5 25 10 37 10 31 0 39 19 17 40 -12 11 -55 23 -119 34
-117 19 -159 20 -186 6 -12 -7 -19 -7 -19 -1 0 24 83 25 220 3z m-1905 -23
c11 -57 25 -227 23 -288 -1 -55 -2 -49 -8 39 -10 146 -20 225 -29 228 -5 1 -6
14 -3 28 5 29 11 27 17 -7z m1698 -24 c24 -31 33 -35 72 -35 35 0 50 5 66 24
22 25 49 25 79 1 8 -7 22 -15 30 -18 10 -4 8 -6 -6 -6 -12 -1 -27 6 -34 14
-17 21 -44 19 -65 -5 -22 -24 -100 -28 -131 -5 -12 8 -24 11 -28 7 -4 -3 -4 1
-1 9 10 26 -18 42 -49 28 -35 -16 -33 -27 7 -32 31 -4 31 -4 -5 -5 -31 -2 -38
1 -38 17 0 12 11 23 28 29 41 16 45 15 75 -23z m-1629 -87 c4 -51 9 -115 13
-142 4 -36 3 -47 -6 -42 -6 4 -9 11 -7 15 5 8 -9 177 -20 239 -3 20 -1 32 4
28 5 -3 12 -47 16 -98z m814 40 c72 -8 114 -9 147 -1 25 6 45 7 45 2 0 -15
-113 -21 -201 -10 -82 11 -179 44 -179 62 0 4 19 -3 43 -17 31 -17 73 -27 145
-36z m-948 38 l-35 -13 0 -69 c0 -69 9 -167 21 -214 5 -21 4 -22 -6 -7 -14 22
-35 244 -27 279 5 17 15 28 30 31 44 8 51 5 17 -7z m959 -12 c10 -9 -45 -3
-59 6 -11 7 -5 8 20 4 19 -4 37 -8 39 -10z m265 -7 c17 -12 17 -14 3 -20 -10
-4 -16 -2 -14 6 1 7 -16 14 -43 18 l-45 6 41 1 c22 1 48 -4 58 -11z m-1181
-14 c3 -5 -11 -9 -31 -10 -32 -1 -34 0 -12 7 34 11 38 11 43 3z m264 -205 c-2
-35 -3 -7 -3 62 0 69 1 97 3 63 2 -35 2 -91 0 -125z m2662 156 c-7 -8 -12 -34
-11 -57 2 -23 -2 -100 -7 -172 -14 -183 -63 -338 -133 -426 -33 -41 -75 -69
-100 -69 -7 1 3 10 23 20 104 55 181 238 199 473 6 70 10 150 9 176 -2 50 5
71 23 71 6 0 5 -6 -3 -16z m341 1 c112 -4 207 -8 210 -10 3 -2 23 0 44 5 27 6
35 5 28 -2 -10 -10 -201 -13 -249 -4 -12 3 -95 6 -186 7 -91 2 -164 6 -161 10
2 4 28 6 57 4 28 -2 144 -7 257 -10z m-544 -17 c-3 -13 -13 -63 -22 -113 -9
-49 -20 -94 -24 -98 -4 -5 1 31 11 80 10 48 19 103 19 121 0 17 5 32 10 32 6
0 8 -10 6 -22z m14 -75 c-7 -49 -19 -104 -27 -123 -7 -19 -11 -24 -8 -10 13
59 32 175 34 214 0 11 4 16 8 13 3 -4 0 -46 -7 -94z m-1084 37 c5 0 26 -9 47
-20 21 -11 63 -28 95 -36 123 -35 146 -43 125 -43 -12 -1 -34 4 -50 10 -15 6
-53 17 -83 25 -30 8 -64 21 -75 28 -40 25 -80 34 -98 22 -14 -11 -12 -18 24
-61 22 -26 37 -50 34 -53 -5 -6 -40 35 -67 80 -17 27 -17 28 2 40 19 12 19 13
-3 38 -20 22 -19 22 9 -2 16 -16 34 -28 40 -28z m-131 -75 c5 -40 17 -68 47
-111 22 -32 41 -64 42 -71 1 -7 11 -20 22 -28 10 -8 15 -14 9 -15 -17 0 -36
16 -38 32 -2 8 -19 37 -40 65 -26 36 -40 69 -48 110 -6 32 -15 67 -21 78 -10
17 -9 18 4 7 9 -7 19 -37 23 -67z m275 -257 c42 -40 89 -89 106 -108 16 -19
44 -47 61 -61 35 -29 53 -59 53 -87 0 -38 -41 -153 -61 -170 -10 -9 -19 -20
-19 -25 0 -12 -43 -67 -53 -67 -5 0 3 14 17 31 14 17 26 37 26 45 0 8 4 14 10
14 13 0 45 65 59 124 15 61 5 89 -47 130 -20 16 -62 60 -92 96 -30 37 -68 77
-85 89 -47 33 -140 113 -144 123 -7 19 96 -63 169 -134z m3410 133 c0 -5 -11
-23 -25 -39 -14 -17 -25 -37 -25 -46 0 -29 -47 -36 -260 -36 -134 -1 -210 -5
-210 -11 0 -6 -5 -7 -11 -3 -28 17 29 23 224 24 205 0 247 6 247 34 0 11 49
84 58 86 1 0 2 -4 2 -9z m-4085 -33 c-58 -36 -61 -40 -70 -86 -5 -29 -2 -39
21 -63 15 -16 43 -34 63 -40 20 -6 41 -16 46 -21 7 -7 5 -9 -5 -5 -8 3 -32 11
-53 18 -21 7 -50 26 -64 43 -21 25 -24 36 -18 70 7 47 26 70 75 97 56 29 59
21 5 -13z m315 -83 c11 -13 10 -14 -2 -10 -9 4 -18 0 -21 -9 -7 -18 8 -31 18
-16 3 5 12 10 18 10 7 0 1 -9 -13 -20 -20 -15 -26 -16 -32 -5 -7 12 6 65 16
65 2 0 9 -7 16 -15z m197 -26 c-2 -12 -14 -27 -26 -33 -12 -7 -28 -23 -34 -36
-7 -12 -16 -23 -22 -22 -5 0 -18 -4 -27 -9 -10 -5 -18 -7 -18 -5 0 3 14 12 30
21 17 9 30 22 30 31 0 8 11 19 24 24 13 5 27 18 31 29 8 27 16 27 12 0z m-702
-27 c-15 -22 -39 -43 -59 -50 -18 -7 -41 -21 -51 -32 -10 -11 -24 -20 -30 -20
-23 0 -90 -61 -107 -98 -20 -43 -24 -29 -5 17 12 28 80 90 100 91 5 0 23 11
40 24 18 13 42 27 53 30 12 4 32 22 45 41 13 19 27 35 32 35 4 0 -4 -17 -18
-38z m402 23 c3 -9 18 -22 34 -31 19 -10 29 -22 28 -37 0 -21 -1 -21 -8 -2 -5
11 -20 26 -33 33 -27 15 -54 52 -38 52 6 0 13 -7 17 -15z m-55 -50 c26 -3 50
-10 53 -15 3 -5 -9 -5 -27 1 -18 5 -49 9 -68 10 -19 0 -44 4 -55 9 -21 10 -21
10 97 -5z m148 -83 c-7 -3 -16 2 -21 9 -16 25 -9 32 12 13 13 -12 16 -20 9
-22z m550 -112 c0 -8 -5 -22 -10 -30 -8 -11 -9 -9 -5 10 5 21 -5 36 -55 87
-33 34 -60 65 -60 69 0 5 29 -21 65 -56 36 -35 65 -71 65 -80z m-580 95 c5 3
11 1 15 -4 7 -13 -45 -3 -62 11 -25 21 -13 29 13 9 15 -11 30 -18 34 -16z
m-381 -129 c57 -8 105 -17 107 -19 7 -6 -90 -2 -101 4 -5 4 -32 10 -58 13 -52
8 -112 30 -121 45 -4 5 11 1 32 -9 21 -10 85 -25 141 -34z m380 38 c25 -3 47
-7 50 -10 3 -3 -21 -3 -53 0 -32 2 -64 10 -70 17 -8 9 -6 10 9 4 11 -4 40 -9
64 -11z m-540 -51 c12 -14 19 -28 16 -31 -3 -3 -6 -3 -7 -1 -2 2 -14 16 -27
32 -14 15 -20 27 -13 27 6 0 20 -12 31 -27z m966 7 c3 -5 -4 -6 -15 -3 -31 8
-67 -5 -95 -35 -14 -15 -25 -22 -25 -16 0 25 82 74 112 66 10 -2 20 -8 23 -12z
m24 -27 c-29 -34 -52 -52 -62 -53 -4 0 10 18 30 40 42 44 71 56 32 13z m-559
-7 c14 -3 34 -12 45 -20 20 -15 20 -15 -3 -9 -12 3 -25 9 -28 14 -3 5 -18 9
-33 9 -15 0 -36 7 -47 15 -18 13 -17 14 11 5 17 -5 41 -12 55 -14z m846 2 c-9
-12 -16 -29 -16 -37 0 -8 -11 -29 -25 -47 -14 -18 -25 -38 -25 -44 0 -6 -11
-15 -25 -20 -14 -5 -25 -14 -25 -19 0 -6 -15 -18 -32 -27 -38 -19 -37 -18 20
30 49 41 86 90 109 147 8 22 19 39 25 39 5 0 2 -10 -6 -22z m-1205 -36 c12
-17 17 -32 12 -32 -4 0 -18 16 -31 36 -13 20 -19 35 -12 32 6 -2 20 -18 31
-36z m84 28 c4 -6 10 -8 14 -6 4 3 5 -11 3 -29 -3 -25 -9 -33 -23 -32 -20 1
-45 49 -34 66 8 14 32 14 40 1z m745 -7 c-1 -5 -12 -21 -25 -38 -30 -36 -34
-19 -4 19 21 26 29 32 29 19z m-649 -13 c21 -12 24 -36 9 -60 -7 -11 -9 -8 -7
14 1 17 -4 32 -15 39 -21 14 -26 9 -34 -30 -5 -28 -3 -33 25 -48 17 -9 35 -13
40 -11 5 3 16 -3 26 -14 10 -11 34 -22 54 -26 20 -3 56 -13 80 -20 34 -11 51
-12 77 -4 24 8 39 8 53 0 28 -15 135 13 174 46 16 13 32 24 36 24 4 0 14 13
24 29 15 26 15 30 1 42 -14 11 -18 11 -28 -2 -6 -9 -17 -14 -23 -12 -8 3 -13
-6 -14 -24 l-1 -28 -7 30 c-3 17 -11 28 -16 26 -6 -2 -21 -8 -35 -13 -14 -5
-42 -8 -62 -5 -24 3 -44 -1 -59 -11 -12 -8 -19 -10 -15 -4 4 7 1 12 -7 12 -10
0 -14 -7 -11 -22 4 -22 4 -22 -5 -2 -11 25 -129 54 -141 34 -5 -8 -11 -6 -20
5 -15 18 -47 20 -52 3 -3 -7 -7 -6 -11 5 -5 14 0 17 27 17 18 0 36 -3 39 -7 8
-8 42 -11 185 -18 84 -4 119 -2 140 9 15 7 33 11 40 9 7 -3 27 1 44 8 27 11
32 10 44 -5 11 -15 10 -24 -4 -52 -8 -19 -19 -34 -23 -34 -4 0 -20 -11 -36
-24 -38 -31 -152 -60 -187 -46 -17 6 -35 6 -51 0 -17 -7 -40 -6 -68 1 -23 5
-62 15 -87 21 -25 6 -52 16 -60 23 -8 7 -32 18 -52 24 -20 7 -39 20 -42 29 -4
13 -2 60 3 80 2 6 34 1 52 -8z m3805 -27 c96 -4 148 -1 163 6 13 7 21 8 21 2
0 -17 -68 -24 -204 -19 -80 3 -139 9 -151 17 -19 11 -18 12 5 6 14 -4 89 -9
166 -12z m-3699 -80 c-3 -10 -5 -2 -5 17 0 19 2 27 5 18 2 -10 2 -26 0 -35z
m-17 23 c0 -3 -4 -8 -10 -11 -5 -3 -10 -1 -10 4 0 6 5 11 10 11 6 0 10 -2 10
-4z m-959 -377 c-72 -108 -88 -168 -74 -277 6 -48 21 -114 33 -147 12 -33 23
-67 25 -75 5 -25 56 -122 89 -170 39 -58 69 -93 131 -155 176 -175 468 -315
656 -315 55 0 202 23 274 42 69 18 198 71 250 101 68 40 141 115 149 154 4 17
14 37 22 44 8 6 14 22 14 35 0 12 4 26 10 29 5 3 14 20 19 38 6 20 10 25 10
12 0 -11 -6 -33 -14 -49 -8 -15 -15 -35 -15 -43 0 -8 -9 -26 -20 -40 -11 -14
-20 -33 -20 -43 0 -26 -89 -113 -150 -148 -137 -77 -380 -142 -531 -142 -140
0 -406 104 -542 211 -123 97 -137 111 -208 202 -148 191 -228 457 -184 612 20
69 108 215 122 201 2 -2 -19 -36 -46 -77z m1491 -86 c-4 -28 -18 -50 -61 -94
-31 -32 -65 -70 -76 -84 -28 -36 -212 -96 -282 -91 -18 1 -51 3 -73 4 -30 2
-42 8 -51 25 -11 21 -11 21 7 5 63 -56 350 0 401 79 10 15 42 51 71 80 34 34
52 59 52 75 0 20 7 38 15 38 0 0 -1 -16 -3 -37z m-699 -153 c22 0 82 -39 61
-40 -5 0 -19 7 -30 15 -10 8 -29 15 -40 15 -22 0 -54 38 -54 62 0 7 10 -2 21
-19 13 -20 29 -33 42 -33z m126 -44 c13 -7 20 -16 15 -19 -5 -3 -21 3 -34 14
-29 21 -17 25 19 5z m2943 -1129 c69 -109 88 -141 88 -152 0 -11 -105 149
-145 222 -37 66 1 20 57 -70z m-6065 62 l34 -21 6 21 c3 11 9 21 15 21 5 0 4
-9 -2 -20 -9 -16 -6 -27 15 -54 36 -47 31 -58 -6 -13 -17 21 -52 49 -77 62
-26 13 -41 24 -33 25 7 0 29 -10 48 -21z m6868 -395 c-25 -38 -45 -64 -45 -58
0 15 80 137 86 132 2 -3 -16 -36 -41 -74z m-400 -187 c11 -6 69 -13 130 -15
60 -3 124 -11 142 -19 43 -17 43 -25 1 -10 -18 6 -66 12 -107 13 -86 3 -128 9
-189 30 -24 8 -48 11 -54 8 -7 -4 -8 -2 -4 4 8 13 46 7 81 -11z m-25 -92 c0
-5 -18 10 -40 35 -22 25 -39 50 -39 55 0 6 18 -10 39 -35 22 -25 40 -49 40
-55z"/>
<path d="M8205 5179 c-93 -11 -274 -53 -325 -76 -121 -55 -166 -79 -260 -142
-139 -92 -196 -144 -278 -254 -86 -114 -151 -226 -197 -337 -32 -78 -33 -86
-18 -97 30 -23 53 -16 53 16 0 16 13 53 30 82 16 30 49 92 72 139 30 60 61
103 104 145 165 163 243 234 274 250 19 10 60 34 90 53 30 20 60 37 65 38 6 2
69 24 140 49 113 40 187 63 260 80 10 3 73 8 138 11 84 5 123 11 133 22 8 8
13 16 11 18 -9 9 -219 11 -292 3z"/>
<path d="M8315 2509 c-4 -6 2 -21 14 -32 l21 -21 0 21 c0 26 -25 49 -35 32z"/>
<path d="M12345 2253 c-11 -2 -30 -6 -41 -8 -31 -7 -45 -51 -40 -125 3 -36 8
-152 12 -258 3 -106 9 -205 13 -220 4 -17 20 -34 42 -45 30 -16 54 -17 219
-13 102 3 200 5 218 6 l32 0 0 335 0 335 -217 -1 c-120 -1 -227 -4 -238 -6z"/>
</g>
</svg>
