<?xml version="1.0" standalone="no"?>
<!DOCTYPE svg PUBLIC "-//W3C//DTD SVG 20010904//EN"
 "http://www.w3.org/TR/2001/REC-SVG-20010904/DTD/svg10.dtd">
<svg version="1.0" xmlns="http://www.w3.org/2000/svg"
 width="1280.000000pt" height="720.000000pt" viewBox="0 0 1280.000000 720.000000"
 preserveAspectRatio="xMidYMid meet">
<metadata>
Created by potrace 1.16, written by Peter Selinger 2001-2019
</metadata>
<g transform="translate(0.000000,720.000000) scale(0.100000,-0.100000)"
fill="#000000" stroke="none">
<path d="M0 4230 c0 -1633 2 -2970 5 -2970 2 0 44 20 92 44 253 127 497 197
833 242 141 19 476 15 630 -6 128 -18 362 -61 385 -72 17 -7 17 -8 -5 -4 -300
60 -437 77 -675 83 -265 7 -453 -15 -715 -84 -169 -44 -265 -80 -457 -173
l-92 -45 -1 -82 c0 -46 1 -83 3 -83 2 0 53 28 113 63 186 106 473 201 735 242
123 20 490 28 624 14 198 -20 484 -71 515 -91 13 -8 13 -9 -1 -5 -78 24 -359
71 -514 86 -519 49 -1054 -63 -1419 -297 -23 -15 -44 -25 -49 -24 -4 1 -7
-239 -7 -533 l0 -535 915 0 c725 0 915 3 915 13 1 6 5 81 10 165 10 173 10
173 94 221 94 53 85 0 112 684 4 92 9 169 13 171 3 2 3 -57 -1 -132 -4 -76
-12 -254 -18 -397 -8 -191 -14 -265 -25 -281 -7 -12 -35 -34 -62 -49 -98 -57
-96 -51 -108 -283 l-5 -112 579 0 578 0 13 45 c7 24 10 54 7 65 -3 12 -1 18 5
14 10 -7 5 -73 -8 -107 -6 -16 15 -17 295 -17 l301 0 10 24 c11 30 25 35 126
40 77 4 83 3 103 -20 12 -13 21 -29 21 -34 0 -6 79 -10 215 -10 118 0 215 3
215 8 0 4 -11 14 -24 22 -13 8 -45 30 -70 48 -41 30 -47 31 -52 15 -3 -10 -9
-25 -13 -33 -21 -39 -175 -39 -218 2 -33 31 -63 90 -63 126 0 32 34 82 55 82
8 0 1 -12 -16 -29 -34 -34 -36 -58 -10 -109 33 -63 64 -85 129 -90 31 -2 69 1
85 7 33 13 52 54 36 79 -10 15 -295 237 -444 345 -135 98 -304 215 -370 256
-38 24 -88 55 -109 69 -178 112 -459 252 -675 336 -197 78 -436 150 -467 142
-17 -5 -23 -3 -19 4 11 18 48 11 213 -40 328 -101 696 -268 958 -432 21 -14
71 -45 109 -69 99 -62 351 -240 495 -349 177 -135 278 -215 310 -244 19 -18
55 -45 79 -62 24 -16 55 -37 70 -47 14 -9 25 -22 23 -27 -1 -6 43 -10 113 -10
63 0 115 4 115 8 0 8 -24 27 -161 127 -37 28 -104 80 -147 117 -82 70 -91 77
-322 253 -168 127 -188 142 -375 269 -77 53 -144 96 -148 96 -5 0 -23 11 -40
24 -50 37 -328 198 -372 215 -5 2 -37 17 -70 33 -198 98 -485 206 -700 264
-49 13 -100 26 -112 30 -16 4 -23 17 -28 45 -4 21 -4 42 -2 46 3 5 8 94 12
198 3 105 8 201 10 215 2 14 7 102 10 195 3 94 7 199 10 235 3 36 7 112 10
170 3 58 8 139 10 180 5 64 16 282 40 775 3 61 8 133 10 160 2 28 7 118 11
200 4 83 8 152 9 155 2 3 6 93 9 200 4 107 9 215 11 240 3 25 8 79 11 120 3
41 7 77 10 80 5 5 -2 -133 -11 -200 -2 -19 -7 -125 -10 -235 -4 -110 -8 -202
-10 -205 -1 -3 -5 -72 -9 -155 -4 -82 -9 -172 -11 -200 -2 -27 -7 -99 -10
-160 -24 -493 -35 -711 -40 -775 -2 -41 -7 -122 -10 -180 -3 -58 -7 -134 -10
-170 -3 -36 -7 -141 -10 -235 -3 -93 -8 -181 -10 -195 -2 -14 -7 -110 -10
-215 -4 -104 -9 -193 -12 -198 -3 -5 -2 -24 1 -42 7 -37 11 -39 136 -70 118
-30 354 -113 550 -193 162 -66 498 -245 595 -316 17 -13 38 -25 48 -29 31 -11
266 -176 468 -327 l196 -147 46 40 c61 51 61 71 0 91 -63 21 -107 23 -127 7
-11 -9 -16 -10 -16 -2 0 31 75 30 165 -2 27 -10 40 -20 40 -33 0 -20 -42 -74
-59 -74 -5 0 -17 -7 -27 -16 -17 -15 -12 -21 79 -91 53 -42 120 -96 147 -122
28 -25 71 -58 95 -74 65 -40 145 -106 142 -117 -1 -6 31 -10 80 -10 45 0 79 3
75 6 -3 3 0 19 7 36 14 33 3 83 -31 136 -23 36 -34 42 -59 36 -12 -3 -24 -2
-27 3 -3 5 11 8 30 7 44 -1 75 -35 95 -103 13 -48 14 -61 2 -98 l-6 -23 341 0
c246 0 341 3 341 11 0 6 43 93 96 193 86 160 167 287 323 504 80 111 85 121
67 128 -9 3 -37 -4 -64 -16 -26 -13 -60 -24 -77 -25 -39 -3 -87 -16 -100 -26
-21 -16 -62 -27 -74 -20 -9 6 -9 14 0 33 9 21 17 25 38 21 65 -12 94 -7 117
23 22 27 65 40 64 19 -1 -6 -9 -9 -19 -7 -19 3 -48 -24 -38 -35 12 -11 157 55
154 70 -1 5 9 16 23 25 l25 17 -23 -29 c-24 -32 -29 -50 -10 -44 11 4 53 60
112 148 13 19 60 77 105 128 45 52 84 104 87 116 4 19 -1 525 -7 606 -1 14 -1
41 0 60 1 19 -1 101 -5 181 -6 140 -5 151 20 240 38 133 70 164 225 220 64 22
185 58 269 79 84 21 156 41 160 45 7 7 16 38 66 230 31 119 109 287 149 321
16 13 54 36 84 50 55 26 55 27 49 63 -3 20 -6 68 -6 108 0 62 -3 76 -25 101
-14 17 -25 36 -25 43 0 8 14 58 32 113 25 75 38 101 56 109 12 6 25 22 28 36
12 59 61 184 119 306 139 293 331 544 557 728 66 54 269 187 285 187 7 0 13 5
13 10 0 6 8 10 18 10 9 1 42 14 72 30 l55 29 -62 1 c-58 0 -62 -2 -72 -27
l-11 -28 6 30 c3 17 10 32 15 33 5 2 6 9 2 15 -4 7 0 6 10 -1 10 -9 35 -13 66
-10 28 2 47 -1 43 -6 -3 -6 3 -6 14 -1 178 76 413 140 571 155 166 15 494 13
599 -5 245 -42 454 -109 634 -202 69 -36 132 -71 140 -78 8 -7 39 -27 69 -45
57 -33 152 -106 232 -179 27 -24 49 -40 49 -35 0 10 140 6 220 -6 50 -8 47 -8
-25 -4 -100 5 -143 6 -175 5 -24 -1 -24 -1 11 -38 87 -94 177 -211 252 -326
106 -164 226 -430 266 -588 23 -90 27 -99 45 -99 25 0 43 -36 76 -148 l34
-113 -35 -32 c-34 -31 -35 -35 -47 -149 -8 -65 -10 -123 -6 -129 3 -6 32 -22
63 -36 75 -33 117 -67 126 -100 3 -15 24 -54 46 -86 39 -59 65 -128 75 -202 3
-22 18 -67 32 -100 26 -58 27 -65 27 -255 0 -235 -23 -360 -98 -530 -8 -19
-24 -84 -36 -145 -24 -132 -62 -233 -99 -267 -37 -35 -209 -91 -265 -86 l-42
3 3 -140 c4 -156 -3 -141 93 -213 24 -18 82 -60 127 -95 166 -123 194 -143
240 -167 26 -13 76 -50 112 -80 l65 -56 95 1 c52 1 115 7 140 13 25 5 47 9 49
6 5 -4 -8 -8 -82 -25 -66 -14 -65 -14 -132 -5 l-50 7 27 -24 c24 -22 31 -24
70 -15 24 5 62 14 86 19 23 5 55 9 71 9 34 0 131 -46 131 -62 0 -7 -7 -5 -18
4 -19 17 -53 32 -64 30 -5 -1 -8 2 -8 8 0 13 -57 13 -112 0 -24 -5 -61 -13
-83 -16 -35 -6 -38 -8 -21 -18 10 -6 42 -31 70 -54 28 -24 67 -52 86 -63 64
-34 193 -153 236 -218 24 -35 61 -83 84 -108 22 -24 40 -48 40 -54 0 -5 82 -9
200 -9 l200 0 0 140 0 140 -27 0 c-15 0 -45 6 -68 14 -22 8 -53 17 -69 21 -15
3 -26 9 -23 12 3 3 37 -4 76 -16 38 -11 79 -21 90 -21 l21 0 0 609 c0 658 3
621 -50 621 -13 0 -17 5 -13 20 4 14 14 20 34 20 28 0 29 1 29 55 l0 55 -225
0 c-237 -1 -259 3 -275 45 -5 13 -14 148 -21 300 -10 244 -9 278 4 299 21 31
32 32 258 35 107 1 209 4 227 7 29 6 32 10 32 41 l0 35 -72 -6 c-414 -32 -543
-30 -733 14 -49 11 -132 27 -184 34 -52 8 -99 20 -105 26 -8 8 -4 9 14 2 14
-5 52 -13 85 -17 33 -4 112 -18 175 -32 192 -42 255 -46 475 -34 297 17 345
22 345 33 0 10 -263 5 -375 -7 l-40 -5 35 10 c19 5 113 12 208 16 l172 7 0 28
0 29 -87 1 c-49 1 -112 1 -140 -1 -29 -1 -71 1 -93 5 -38 6 -40 8 -40 43 0 21
7 91 15 157 8 65 16 140 16 165 1 28 3 36 7 20 2 -14 -4 -100 -14 -192 -10
-92 -14 -171 -10 -175 4 -5 84 -9 177 -11 l169 -3 0 2331 0 2330 -6400 0
-6400 0 0 -2970z m3446 2167 c11 -23 51 -94 89 -157 37 -63 90 -153 117 -200
27 -47 66 -113 87 -147 l39 -62 -3 -157 c-2 -86 -6 -159 -9 -161 -3 -3 -4 66
-2 152 l4 158 -67 111 c-38 61 -94 156 -126 211 -32 55 -74 127 -94 160 -20
33 -43 75 -50 93 -7 17 -17 32 -21 32 -7 0 -9 -25 -13 -260 -1 -63 -5 -120 -9
-126 -4 -6 -7 -60 -5 -120 1 -60 -5 -234 -12 -387 l-14 -277 23 -33 c26 -35
68 -84 224 -260 96 -109 128 -157 105 -157 -5 0 -9 6 -9 13 0 8 -24 40 -53 73
-97 108 -269 309 -285 332 -14 21 -14 52 -1 310 8 158 13 333 11 390 -1 57 1
109 5 115 5 7 9 66 10 132 1 66 3 153 4 193 1 60 4 72 17 72 10 0 26 -18 38
-43z m55 -469 c29 -46 83 -129 121 -186 37 -57 68 -107 68 -112 0 -5 11 -21
25 -36 14 -15 25 -34 25 -43 0 -12 -4 -10 -13 6 -6 12 -37 59 -68 105 -142
209 -227 348 -215 348 2 0 27 -37 57 -82z m5449 -528 c223 -5 470 -12 550 -15
80 -3 327 -10 550 -15 223 -5 452 -12 510 -15 58 -2 233 -8 390 -11 157 -3
287 -8 290 -11 5 -6 -502 4 -680 12 -58 3 -287 10 -510 15 -223 5 -468 12
-545 15 -77 3 -327 9 -555 15 -228 5 -466 12 -527 16 -125 6 -153 1 -153 -25
0 -15 11 -20 58 -25 32 -4 66 -4 75 0 22 8 87 -4 87 -17 0 -6 -8 -5 -21 2 -12
6 -39 8 -63 5 -22 -3 -63 -2 -91 2 -44 6 -50 10 -53 34 -4 35 7 37 158 32 69
-2 307 -9 530 -14z m1045 -85 c236 -6 972 -29 1285 -41 96 -4 184 -10 195 -15
14 -6 10 -7 -15 -4 -19 3 -172 9 -340 15 -710 23 -963 31 -1279 40 -184 6
-337 13 -340 16 -3 4 55 4 129 0 74 -3 239 -8 365 -11z m-1218 -14 c14 -8 -92
-3 -217 9 -65 6 -51 7 60 3 80 -3 151 -8 157 -12z m2343 -57 c124 -4 252 -10
285 -14 48 -7 41 -8 -40 -4 -165 6 -422 13 -750 20 -170 4 -312 9 -315 12 -5
4 355 -2 820 -14z m375 -103 c-7 -71 -14 -93 -26 -85 -6 3 -5 11 2 21 7 8 13
46 13 88 1 48 4 66 9 52 4 -11 5 -46 2 -76z m-730 -51 l210 -8 -265 4 c-274 4
-481 13 -490 21 -2 2 72 1 165 -2 94 -4 265 -11 380 -15z m626 -191 c4 -79 10
-269 13 -422 4 -152 11 -323 15 -380 5 -56 10 -109 10 -117 9 -133 11 -186 12
-245 0 -96 0 -95 -12 -95 -5 0 -7 5 -4 10 7 11 7 108 0 230 -3 41 -5 84 -6 95
0 11 -5 67 -9 125 -5 58 -12 202 -15 320 -12 491 -18 615 -29 623 -7 6 -6 7 4
4 12 -3 16 -32 21 -148z m-499 -66 c-51 -2 -132 -2 -180 0 -48 1 -6 3 93 3 99
0 138 -2 87 -3z m43 -119 c-70 -8 -173 -8 -168 -1 2 4 48 6 101 5 53 0 84 -3
67 -4z m-7050 -305 c66 -64 158 -152 203 -195 46 -44 93 -92 105 -109 12 -16
-70 58 -182 165 -111 107 -238 228 -282 268 -43 41 -79 79 -79 85 0 12 28 -14
235 -214z m8345 -1117 c0 -13 -2 -14 -9 -4 -12 19 -14 19 -44 -1 -15 -9 -27
-13 -27 -7 0 12 30 25 61 27 12 1 19 -5 19 -15z m103 6 c42 15 60 15 75 0 8
-8 9 -15 1 -25 -6 -7 -9 -20 -5 -28 10 -27 37 -16 52 21 8 19 20 34 26 32 16
-6 27 -49 18 -73 -6 -15 -8 -9 -8 18 0 44 -9 58 -18 31 -4 -10 -14 -27 -21
-36 -17 -19 -9 -58 12 -58 8 0 35 11 61 25 54 29 72 31 81 10 7 -20 -24 -55
-48 -55 -22 0 -33 -16 -22 -32 9 -15 10 -41 3 -48 -18 -17 -40 -63 -40 -84 0
-14 -5 -28 -12 -32 -6 -4 -119 -7 -250 -6 -200 1 -240 -2 -245 -14 -4 -11 32
-211 62 -344 2 -8 4 -19 4 -24 1 -5 15 -6 31 -2 19 3 29 2 25 -4 -6 -9 -65
-15 -65 -6 0 2 -16 83 -35 179 -40 201 -41 214 -17 221 9 2 119 5 244 5 125
-1 232 2 238 6 5 3 10 18 10 32 0 15 8 35 18 46 11 12 17 35 17 65 0 39 3 47
20 50 30 6 58 33 46 45 -7 7 -28 1 -62 -16 -63 -33 -85 -34 -93 -3 -3 14 -16
26 -31 30 -22 6 -23 9 -14 33 14 38 0 46 -54 31 -42 -11 -49 -10 -65 6 -16 17
-16 18 5 5 18 -11 29 -11 56 -1z m-63 -22 c0 -12 -70 -45 -84 -40 -28 11 -61
-4 -79 -36 -10 -16 -23 -30 -28 -30 -10 0 28 59 46 72 6 4 29 7 53 6 28 -1 49
4 60 15 15 16 32 22 32 13z m121 -90 c-9 -11 -8 -17 8 -28 11 -8 23 -26 27
-42 4 -16 20 -36 38 -47 34 -21 31 -24 -8 -9 -15 5 -32 24 -41 46 -8 21 -24
44 -35 51 -16 11 -17 17 -7 28 16 19 33 19 18 1z m-321 -56 c-6 -12 -14 -20
-17 -17 -2 3 1 14 8 26 17 26 24 19 9 -9z m40 16 c0 -2 -7 -9 -15 -16 -13 -11
-14 -10 -9 4 5 14 24 23 24 12z m155 -5 c-3 -6 2 -14 10 -19 9 -5 13 -15 10
-24 -9 -22 -59 -40 -73 -26 -6 6 -12 6 -16 -1 -8 -12 -56 26 -56 43 0 6 7 3
14 -7 10 -13 29 -19 59 -20 53 -2 66 7 49 33 -15 24 -15 30 -1 30 5 0 8 -4 4
-9z m-255 -29 c3 -3 -18 -2 -46 1 -32 4 -55 2 -63 -6 -17 -17 -13 -27 12 -27
26 0 120 -68 112 -80 -3 -4 -24 10 -47 31 -30 28 -50 39 -68 37 -28 -3 -39 24
-19 48 9 11 24 13 63 8 28 -4 53 -9 56 -12z m28 -18 c-2 -14 -10 -30 -20 -35
-22 -12 -23 -3 -3 17 8 8 12 21 9 29 -4 8 -1 15 5 15 6 0 10 -12 9 -26z m-440
-16 c23 -6 45 -15 48 -19 7 -13 -1 -11 -42 6 -20 8 -62 16 -94 17 -32 2 -53 6
-47 10 13 8 71 2 135 -14z m485 -9 c-4 -21 -1 -34 8 -40 11 -7 11 -9 -3 -9 -9
0 -19 -8 -22 -17 -2 -10 -2 0 1 22 6 47 13 75 18 75 3 0 2 -14 -2 -31z m-478
-26 c17 -7 21 -11 10 -7 -11 3 -46 10 -79 14 -32 5 -60 11 -63 14 -11 11 103
-7 132 -21z m625 -3 c21 -11 21 -37 -1 -51 -22 -14 -66 -11 -83 7 -15 14 -14
17 6 34 26 22 50 25 78 10z m-111 -348 c-6 -45 -14 -84 -18 -87 -4 -2 -2 26 6
63 8 41 11 106 9 167 l-5 100 10 -80 c7 -56 7 -104 -2 -163z m-194 -122 c3 -5
-4 -10 -17 -11 -13 -1 -67 -4 -120 -8 -61 -4 -94 -3 -88 4 6 5 40 8 78 7 37
-1 81 2 97 7 40 12 43 13 50 1z m175 -328 c-11 -16 -11 -16 -6 1 3 10 7 49 8
85 l2 67 3 -68 c2 -39 -1 -74 -7 -85z m17 -69 c-1 -32 2 -113 7 -180 8 -131 4
-163 -22 -163 -15 1 -15 2 2 15 17 13 17 23 10 142 -9 136 -11 223 -6 236 7
17 9 4 9 -50z m-342 -9 c28 -13 39 -29 65 -94 18 -44 30 -85 27 -92 -4 -9 -6
-9 -6 2 -1 16 -41 116 -56 141 -13 20 -56 49 -72 49 -38 0 21 -128 78 -169 43
-32 46 -41 6 -18 -43 24 -59 42 -83 94 -43 94 -30 121 41 87z m360 -461 c-6
-27 -95 -89 -140 -98 -26 -6 -25 -4 10 13 22 11 59 34 83 51 42 31 42 32 44
99 2 66 2 66 5 13 2 -30 2 -65 -2 -78z m-532 -441 c11 -2 46 24 91 67 l73 71
89 -6 c49 -3 142 -19 207 -35 65 -16 124 -26 130 -23 9 5 9 4 1 -5 -8 -9 -39
-4 -130 18 -65 16 -157 32 -203 35 l-84 6 -79 -75 c-79 -74 -80 -75 -108 -60
-15 8 -37 29 -49 47 -11 18 -30 47 -41 63 -43 64 -17 44 33 -26 29 -41 61 -75
70 -77z m322 34 c11 -8 15 -16 8 -16 -7 0 -25 12 -40 26 -29 26 -6 20 32 -10z
m-6058 -48 c30 -11 45 -13 50 -6 6 11 -24 42 -50 51 -6 2 -10 7 -7 10 11 12
70 -33 70 -52 0 -30 -13 -32 -66 -14 -49 16 -94 48 -94 67 0 5 12 -2 28 -15
15 -14 46 -33 69 -41z m5471 22 c24 -22 47 -40 53 -40 6 0 8 -4 5 -9 -4 -5 0
-12 6 -14 7 -3 8 -6 3 -6 -6 -1 -33 20 -60 45 -28 25 -59 50 -70 54 l-20 9 20
0 c11 1 39 -17 63 -39z m406 -7 c-15 -21 -36 -44 -46 -51 -10 -7 -16 -18 -13
-23 3 -5 -2 -6 -11 -2 -15 6 -14 9 7 27 13 12 37 38 53 59 16 21 31 35 34 33
3 -3 -8 -22 -24 -43z m260 -21 c20 -17 50 -39 66 -47 38 -19 39 -27 3 -14 -45
15 -123 88 -122 112 0 22 0 22 9 1 4 -11 24 -34 44 -52z m-113 22 c17 -8 28
-18 25 -21 -3 -3 -17 2 -30 11 -32 21 -38 20 -66 -4 -12 -11 -27 -17 -32 -14
-8 5 47 42 65 43 4 1 22 -6 38 -15z m-6641 -21 c11 -10 20 -25 20 -33 0 -34
84 -80 144 -80 27 0 18 29 -16 50 -18 11 -27 20 -20 20 8 0 27 -9 42 -20 20
-14 27 -26 23 -40 -6 -23 -27 -25 -95 -7 -53 14 -88 41 -88 69 0 10 -6 21 -14
24 -13 5 -31 34 -21 34 3 0 14 -8 25 -17z m735 -3 c-8 -13 27 -88 55 -118 11
-11 16 -23 11 -26 -17 -11 -88 125 -75 145 3 5 7 9 10 9 3 0 2 -5 -1 -10z
m-404 -16 c24 -12 30 -21 27 -42 -2 -18 -10 -28 -23 -30 -20 -4 -20 -3 -1 11
24 18 15 44 -19 57 -14 5 -25 12 -25 15 0 8 9 6 41 -11z m483 -3 c22 -24 38
-79 25 -87 -5 -3 -9 -2 -8 3 4 24 -4 45 -27 72 -27 33 -19 44 10 12z m-223
-10 c-19 -12 -2 -54 42 -102 18 -20 31 -41 29 -47 -3 -11 -59 54 -81 96 -17
32 -14 62 7 62 14 0 14 -2 3 -9z m82 -26 c13 -14 27 -36 29 -49 5 -25 -18 -93
-28 -83 -3 3 1 18 10 35 14 26 13 32 -2 62 -10 17 -29 38 -42 46 -17 9 -20 13
-9 14 9 0 28 -11 42 -25z m5647 6 c-11 -22 -69 -60 -99 -66 -12 -2 -26 -7 -31
-10 -6 -3 -10 -2 -10 3 0 5 18 14 40 21 21 6 52 25 67 41 32 33 48 39 33 11z
m-7538 -10 c-7 -4 -15 -17 -16 -27 -4 -24 -105 -85 -149 -89 -23 -2 -37 3 -49
18 -14 18 -19 20 -43 9 -14 -7 -34 -12 -43 -12 -21 1 44 30 67 30 9 0 25 -9
34 -21 22 -26 46 -21 117 23 30 18 53 41 56 55 4 12 14 23 23 23 12 0 13 -2 3
-9z m1705 -16 c45 -19 62 -41 62 -80 0 -32 -22 -70 -42 -70 -14 0 -74 76 -88
113 -20 51 3 64 68 37z m5996 -1 c-4 -12 -7 -13 -14 -3 -9 16 -14 12 -23 -17
-5 -16 -2 -23 14 -27 15 -4 20 -13 20 -36 0 -41 -26 -47 -142 -32 -54 7 -94 8
-97 3 -3 -5 -24 -12 -46 -16 -22 -4 -59 -14 -83 -22 -24 -8 -47 -12 -52 -9 -5
3 -14 -4 -20 -16 -7 -11 -14 -18 -17 -15 -8 8 28 47 37 41 5 -3 21 0 37 6 15
6 53 17 83 23 37 8 54 16 52 25 -2 9 3 11 14 7 9 -3 59 -12 110 -18 103 -13
122 -8 109 32 -6 18 -12 21 -33 15 -15 -3 -56 -8 -92 -10 l-65 -4 55 8 c82 12
97 19 109 51 6 20 17 30 30 30 14 0 19 -5 14 -16z m-304 -9 c-40 -22 -106 -35
-106 -21 0 7 11 11 26 9 14 -2 37 3 51 11 14 8 32 14 40 15 8 0 3 -6 -11 -14z
m746 -43 c28 -32 67 -69 88 -82 21 -14 59 -45 85 -70 54 -52 78 -64 167 -85
106 -24 275 -113 275 -145 0 -5 -21 7 -47 27 -54 40 -170 97 -223 107 -73 15
-136 39 -151 59 -9 11 -21 17 -28 13 -10 -7 4 -28 79 -119 4 -4 26 0 49 9 73
29 96 17 296 -158 5 -5 5 -8 -1 -8 -6 0 -46 31 -90 69 -79 68 -130 101 -158
101 -8 0 -35 -9 -61 -20 -25 -11 -43 -16 -40 -11 3 5 1 13 -5 16 -6 4 -29 29
-51 57 -29 37 -37 54 -29 63 10 13 -18 43 -102 107 -38 29 -125 128 -111 128
4 -1 31 -27 58 -58z m-7887 10 c3 -29 0 -34 -35 -49 -50 -21 -102 -33 -107
-24 -3 4 9 8 26 9 16 1 47 11 69 22 45 23 52 55 17 70 -23 10 -23 10 2 7 20
-2 26 -8 28 -35z m950 12 c12 -8 22 -25 22 -37 0 -23 -35 -53 -45 -38 -3 5
-28 15 -55 22 -32 8 -56 21 -65 36 -17 26 -9 32 9 7 17 -22 126 -58 139 -45
16 16 0 41 -38 57 -19 8 -35 17 -35 20 0 8 41 -6 68 -22z m303 5 c61 -19 78
-32 89 -65 9 -27 8 -39 -9 -71 -11 -21 -20 -32 -21 -25 0 6 -5 12 -10 12 -15
0 -85 71 -95 95 -7 17 -10 44 -6 60 2 8 15 6 52 -6z m-1412 -28 c-21 -17 -22
-22 -11 -41 7 -12 11 -24 8 -27 -3 -3 -10 6 -17 19 -13 30 2 68 27 68 12 0 10
-5 -7 -19z m765 -9 c-6 -23 31 -47 100 -65 49 -12 58 -12 63 0 7 18 -25 53
-49 53 -10 0 -18 4 -18 9 0 13 41 1 63 -17 17 -15 23 -57 9 -66 -15 -9 -137
27 -158 46 -25 22 -39 69 -19 61 7 -2 11 -12 9 -21z m-235 -12 c-20 -17 -22
-21 -9 -30 21 -14 66 -12 128 4 29 7 52 10 52 6 0 -4 -12 -11 -27 -15 -83 -21
-173 -16 -173 10 0 17 39 59 47 51 3 -3 -5 -15 -18 -26z m-81 -18 c2 -12 8
-20 13 -17 5 4 9 2 9 -3 0 -12 -100 -66 -107 -58 -8 7 -8 7 40 29 30 13 38 22
35 39 -2 13 -13 25 -28 30 -23 6 -23 7 5 5 23 -2 31 -7 33 -25z m819 17 c37
-13 72 -57 72 -89 1 -22 -38 -88 -39 -66 0 5 -7 3 -15 -4 -8 -7 -15 -8 -15 -3
0 6 -17 30 -38 54 -77 88 -59 144 35 108z m5956 -10 c9 -13 17 -16 22 -10 7
13 52 15 59 3 3 -5 -8 -6 -25 -4 -17 3 -29 0 -29 -7 0 -19 -27 -12 -33 9 -7
28 -87 29 -104 1 -13 -20 -6 -32 27 -44 11 -4 10 -6 -4 -6 -10 -1 -24 7 -31
16 -10 14 -10 21 2 40 21 32 95 33 116 2z m-7378 -25 l-36 -36 -79 4 c-84 3
-115 18 -91 41 10 8 12 9 7 0 -11 -21 32 -34 100 -31 52 2 68 7 76 21 7 14 34
31 56 36 1 1 -14 -15 -33 -35z m455 14 c-44 -30 -47 -44 -13 -56 19 -7 22 -11
9 -11 -13 -1 -17 -6 -13 -21 3 -12 1 -18 -5 -14 -10 6 -20 8 -66 13 -7 0 -18
12 -24 26 -6 13 -20 27 -30 31 -26 8 -18 15 10 7 12 -3 22 -11 22 -19 0 -19
44 -46 64 -38 18 7 21 20 6 29 -5 3 -10 11 -10 16 0 16 48 59 66 59 11 0 5 -8
-16 -22z m1544 -20 c-13 -14 -19 -35 -19 -69 0 -27 -3 -49 -7 -49 -5 0 -8 17
-8 37 0 39 41 136 48 114 2 -7 -4 -21 -14 -33z m-90 -37 c7 -24 5 -47 -8 -88
-10 -30 -20 -52 -23 -49 -3 3 2 23 11 46 20 50 20 80 2 106 -15 19 -15 19 -36
-2 -13 -12 -23 -39 -26 -71 -6 -45 -4 -52 17 -67 18 -12 20 -16 7 -16 -41 0
-48 98 -11 160 21 36 54 27 67 -19z m5956 -10 c79 -42 145 -90 136 -98 -3 -3
-19 7 -37 21 -17 15 -64 45 -104 67 -40 22 -79 48 -87 57 -11 15 -11 15 2 5 9
-7 49 -30 90 -52z m-6587 7 c31 -37 35 -77 11 -113 -19 -28 -36 -25 -82 19
-38 35 -73 103 -64 124 4 11 17 13 56 9 41 -5 56 -12 79 -39z m-1032 5 c-17
-11 -39 -15 -75 -13 -28 2 -72 3 -98 2 -26 -1 -50 2 -53 7 -5 9 160 5 175 -4
4 -2 16 2 26 10 10 8 26 15 34 15 9 0 6 -6 -9 -17z m1502 -30 c15 -34 15 -40
-4 -99 -18 -55 -23 -62 -42 -58 -12 2 -28 12 -35 21 -15 21 -8 94 14 144 20
46 44 42 67 -8z m-978 25 c-11 -6 -31 -21 -45 -34 -24 -22 -29 -22 -120 -14
l-95 9 93 -3 c52 -2 95 1 98 6 8 13 66 48 79 48 6 0 1 -6 -10 -12z m96 2 c12
-7 19 -21 19 -39 0 -28 15 -41 46 -41 9 0 14 7 12 18 -4 24 19 52 44 52 48 0
128 -55 128 -88 0 -8 10 -23 22 -33 24 -22 53 -26 42 -6 -4 6 2 3 14 -7 12
-11 22 -25 22 -33 0 -8 18 -42 41 -75 22 -34 49 -79 60 -100 21 -40 29 -43 75
-29 119 38 232 66 221 54 -5 -4 -32 -13 -60 -19 -29 -6 -85 -21 -124 -33 -93
-27 -101 -27 -116 7 -6 15 -33 59 -58 97 -26 39 -48 79 -50 89 -2 11 -16 23
-32 27 -38 10 -54 25 -74 66 -21 46 -91 82 -126 66 -19 -9 -23 -17 -20 -37 5
-23 2 -26 -24 -26 -35 0 -53 16 -53 46 0 26 -10 34 -54 45 l-31 7 28 1 c16 1
37 -4 48 -9z m6894 -80 c33 -25 88 -73 124 -106 36 -34 75 -66 86 -72 11 -5
70 -15 130 -21 108 -12 289 -52 329 -73 23 -12 36 -28 36 -43 0 -5 -9 0 -18
13 -24 31 -195 76 -347 92 -60 7 -120 16 -133 21 -13 5 -52 35 -86 67 -33 32
-79 71 -102 88 -52 37 -114 91 -114 100 0 7 6 2 95 -66z m-8312 22 c-42 -43
-54 -46 -29 -7 14 21 38 38 64 44 1 1 -15 -16 -35 -37z m2084 -1 c-34 -36 -47
-129 -21 -155 16 -17 18 -17 37 2 10 11 20 34 22 51 1 17 5 34 9 38 10 10 7
51 -4 58 -5 3 -10 14 -10 23 1 25 29 -27 30 -54 0 -42 -31 -124 -52 -135 -18
-10 -25 -8 -41 12 -16 19 -18 33 -12 79 7 55 42 123 58 113 5 -3 -3 -17 -16
-32z m6718 -3 c6 -5 -3 -4 -20 2 -31 12 -154 14 -215 4 -19 -4 -32 -3 -28 1 4
4 47 11 95 14 86 6 148 -1 168 -21z m-744 -13 c19 -12 57 -33 85 -45 27 -12
92 -48 144 -80 52 -32 104 -60 115 -63 11 -3 39 -11 63 -17 23 -6 42 -14 42
-19 0 -14 -155 42 -210 77 -50 32 -212 123 -283 160 -27 13 -29 12 -52 -15
-14 -15 -25 -24 -25 -19 0 6 10 20 22 33 25 26 43 24 99 -12z m-6104 -45 c12
-29 21 -39 32 -35 13 5 13 4 -1 -12 -8 -10 -21 -36 -28 -58 -14 -44 -50 -107
-50 -88 0 7 11 33 25 60 14 26 23 53 21 60 -3 7 -1 15 4 18 10 6 -6 50 -28 78
-11 12 -12 17 -3 17 7 0 20 -18 28 -40z m-67 -15 c-26 -52 -27 -121 -1 -137
10 -6 17 -18 14 -25 -4 -9 -11 -5 -25 13 -17 21 -20 35 -15 85 3 33 13 71 22
85 25 38 28 24 5 -21z m6726 -23 c5 -5 45 -23 89 -42 44 -18 109 -46 143 -62
47 -21 76 -28 109 -26 l45 3 38 -61 c46 -76 114 -140 145 -136 12 2 28 -4 35
-12 7 -9 22 -16 33 -16 l21 0 -21 22 c-14 13 -35 22 -57 22 -18 1 -32 5 -29 9
8 13 75 -2 96 -20 22 -21 22 -30 -4 -44 -17 -9 -25 -7 -43 10 -28 26 -43 27
-51 1 -4 -11 -15 -20 -26 -20 -22 0 -260 118 -294 145 -31 25 -10 16 148 -65
108 -56 149 -72 157 -64 9 9 -2 25 -42 62 -29 28 -66 76 -83 107 -30 55 -30
56 -67 50 -38 -7 -101 9 -129 32 -8 7 -20 13 -26 13 -18 0 -187 72 -203 86
-15 15 -1 20 16 6z m-9129 -149 c-4 -91 -14 -186 -27 -247 -12 -54 -20 -115
-18 -134 l3 -35 93 83 c51 45 95 80 97 78 6 -6 -141 -140 -171 -156 -20 -11
-24 -21 -25 -65 -1 -29 -1 -57 0 -64 1 -6 -4 -15 -10 -19 -9 -5 -10 3 -5 30 4
21 7 73 7 115 0 43 9 120 20 172 11 52 22 159 26 242 3 81 8 147 11 147 2 0 2
-66 -1 -147z m2928 75 c-11 -7 -53 -18 -94 -25 -54 -9 -82 -19 -101 -38 -32
-30 -51 -33 -24 -4 25 29 67 45 134 54 30 4 62 11 70 16 8 5 20 8 25 8 6 0 1
-5 -10 -11z m5889 -59 c69 -24 100 -30 138 -27 29 3 44 2 36 -3 -27 -17 -96
-8 -198 27 -58 19 -112 42 -120 50 -13 14 -11 14 20 0 19 -8 75 -29 124 -47z
m-6258 30 c4 -8 -1 -9 -15 -4 -26 8 -61 -18 -61 -46 0 -16 4 -17 31 -7 17 6
33 16 35 22 6 16 42 18 50 3 4 -7 4 -9 0 -5 -5 4 -24 -2 -44 -12 -61 -31 -93
-30 -85 3 12 47 69 77 89 46z m6589 -89 c50 -10 117 -30 150 -43 62 -25 196
-93 160 -82 -42 14 -53 13 -73 -5 -17 -16 -22 -17 -31 -6 -7 8 -34 23 -61 35
-27 12 -52 26 -55 31 -9 15 -5 13 68 -23 42 -22 71 -31 79 -25 32 21 -102 81
-254 113 -43 9 -78 18 -78 21 0 6 -5 6 95 -16z m693 -37 c15 -6 20 -12 12 -12
-21 -1 -80 36 -80 50 0 7 9 4 21 -7 11 -10 33 -24 47 -31z m-8857 10 c17 -21
18 -55 3 -60 -7 -2 -10 5 -7 20 6 29 -12 44 -57 50 -35 4 -35 4 6 5 28 2 45
-3 55 -15z m536 -38 c18 -8 33 -19 33 -25 0 -6 4 -8 10 -5 6 3 7 -1 4 -10 -22
-57 -229 -60 -280 -4 -16 18 -16 20 0 38 10 11 32 22 50 24 48 7 146 -3 183
-18z m168 -26 c16 0 48 -7 70 -15 22 -7 29 -11 15 -9 -14 3 -45 8 -70 11 -49
6 -120 32 -120 44 0 5 17 -1 37 -11 21 -10 51 -19 68 -20z m700 -9 c19 0 24
-34 9 -55 -8 -10 -14 -14 -14 -9 0 6 -12 16 -26 23 -15 6 -24 15 -20 18 3 4
12 1 18 -5 15 -15 38 -16 38 -1 0 6 -11 20 -25 31 -14 11 -25 25 -24 31 0 7 7
2 16 -10 8 -13 21 -23 28 -23z m7470 29 c2 -3 -20 -6 -50 -7 -30 -1 -55 1 -55
5 0 8 97 10 105 2z m-9360 -26 c-26 -7 -105 -61 -105 -73 0 -15 34 -29 95 -38
50 -8 65 -6 121 15 35 14 64 29 64 33 0 4 10 6 22 2 16 -4 2 -13 -63 -37 -77
-30 -90 -32 -141 -24 -98 16 -122 32 -100 65 14 22 85 64 106 63 20 -1 20 -2
1 -6z m1255 -72 c35 -13 46 -22 47 -41 3 -24 2 -24 -6 -4 -11 25 -72 50 -143
59 -36 5 -55 2 -78 -11 -35 -21 -45 -43 -28 -60 24 -22 137 -55 157 -45 9 5
32 9 50 9 17 -1 37 4 43 10 7 7 19 12 28 12 29 -1 -39 -30 -79 -34 -22 -2 -44
-7 -50 -10 -10 -7 -149 38 -164 53 -16 16 5 59 36 75 37 19 115 13 187 -13z
m80 9 c0 -5 12 -13 28 -16 15 -4 36 -13 48 -21 12 -7 48 -20 80 -29 32 -8 63
-19 69 -25 5 -5 -10 -3 -34 6 -24 8 -50 15 -58 15 -21 0 -153 62 -153 72 0 4
5 8 10 8 6 0 10 -4 10 -10z m7525 -30 c16 -16 24 -30 19 -30 -6 0 -23 14 -39
30 -16 17 -24 30 -19 30 6 0 23 -13 39 -30z m-8633 -31 c-69 -65 -61 -106 26
-129 26 -6 56 -15 68 -20 12 -5 28 -3 40 3 27 17 87 37 93 32 2 -3 -9 -9 -25
-15 -16 -6 -42 -17 -57 -24 -25 -11 -38 -10 -103 8 -41 12 -81 29 -89 37 -23
23 -8 74 32 109 45 40 57 39 15 -1z m8935 -3 c-9 -13 -31 -35 -49 -47 -30 -21
-29 -19 12 28 46 52 65 62 37 19z m-9577 6 c-14 -9 -41 -33 -61 -54 -44 -46
-58 -50 -27 -7 24 33 85 79 103 78 5 0 -1 -8 -15 -17z m252 -8 c43 -7 58 -22
63 -61 6 -56 -59 -110 -145 -119 -19 -2 -50 -7 -68 -10 -38 -7 -74 19 -91 67
-9 26 -6 32 25 63 19 19 54 39 77 45 23 6 49 15 57 21 8 5 22 8 30 5 8 -2 32
-7 52 -11z m9098 -23 c0 -3 -9 -19 -20 -36 -11 -16 -20 -24 -20 -16 0 8 8 23
17 34 17 18 17 19 1 31 -10 7 -15 16 -11 20 7 7 33 -20 33 -33z m-7990 17 c0
-5 10 -13 23 -18 19 -8 20 -9 3 -9 -11 -1 -27 6 -36 14 -26 24 -123 9 -163
-24 -27 -23 -29 -23 -18 -4 15 29 23 33 79 43 58 10 112 9 112 -2z m101 -61
c0 -7 2 -22 5 -33 9 -50 -76 -101 -136 -83 l-25 8 25 -1 c55 -1 70 3 98 27 32
27 36 70 8 91 -23 16 -20 27 4 14 11 -6 20 -16 21 -23z m8148 21 c-47 -29
-109 -57 -109 -50 0 10 102 64 108 57 3 -3 3 -6 1 -7z m-7754 -18 c-3 -5 -19
-7 -35 -3 -19 3 -36 0 -47 -8 -22 -19 -41 -68 -36 -90 6 -22 58 -54 104 -64
19 -4 39 -11 44 -15 14 -11 121 42 118 58 -2 6 2 12 7 12 6 0 10 -4 10 -10 0
-13 -41 -50 -56 -50 -6 0 -24 -6 -39 -14 -23 -12 -32 -12 -61 0 -18 8 -42 14
-52 14 -11 0 -39 17 -63 38 -24 22 -51 42 -59 45 -9 4 -5 6 9 4 19 -2 26 5 34
28 16 50 36 65 84 65 26 0 42 -4 38 -10z m241 -77 c55 -41 112 -103 96 -103
-6 0 -20 12 -32 27 -12 15 -45 45 -73 66 -67 50 -97 78 -97 91 0 5 12 -2 28
-16 15 -15 50 -44 78 -65z m-1539 -15 c17 -21 38 -75 49 -131 2 -14 -10 -33
-38 -59 -23 -21 -43 -36 -45 -34 -4 4 -37 -4 -78 -19 l-20 -8 20 16 c11 9 29
17 41 17 28 0 86 40 100 69 15 29 -7 103 -40 139 -19 22 -28 24 -99 20 -72 -3
-81 -6 -103 -31 -15 -18 -24 -41 -24 -62 0 -19 -4 -36 -10 -40 -13 -8 -1 -37
29 -63 l26 -24 -35 19 c-34 18 -41 37 -27 73 3 8 8 32 11 54 6 44 28 73 60 79
11 2 53 5 92 6 61 1 73 -2 91 -21z m539 -7 c-3 -5 31 -37 76 -72 45 -35 89
-69 97 -76 9 -7 11 -12 4 -13 -6 0 -29 15 -51 33 -22 17 -65 52 -97 76 -42 32
-53 46 -43 52 17 11 20 11 14 0z m8367 -58 c-25 -53 -24 -134 2 -164 11 -13
13 -18 4 -12 -12 10 -18 10 -27 1 -15 -15 -25 -5 -52 47 -27 53 -18 56 11 4
13 -23 29 -40 34 -38 6 2 8 9 6 14 -14 39 -11 94 9 138 11 26 23 47 26 47 2 0
-4 -17 -13 -37z m-7888 18 c14 -6 8 -8 -22 -7 -44 1 -83 -24 -83 -53 0 -9 -4
-22 -9 -30 -6 -9 -8 -4 -6 18 3 48 35 75 90 79 6 0 19 -3 30 -7z m539 -46 c3
-8 2 -14 -2 -13 -11 3 -67 -29 -81 -46 -8 -9 -13 -28 -13 -42 0 -16 -3 -21 -8
-14 -15 24 7 65 51 96 24 18 45 33 45 33 1 1 4 -6 8 -14z"/>
<path d="M12165 3020 c-17 -18 -16 -19 10 -26 14 -3 36 -2 47 3 19 8 20 10 4
26 -23 22 -39 21 -61 -3z"/>
<path d="M5670 1158 c0 -15 29 -61 63 -103 25 -30 26 -30 41 -10 31 40 16 79
-41 108 -38 20 -63 22 -63 5z"/>
<path d="M5500 1115 c0 -25 76 -115 97 -115 5 0 15 11 22 24 21 38 -7 80 -66
100 -25 9 -48 16 -50 16 -2 0 -3 -11 -3 -25z"/>
<path d="M5326 1081 c-10 -15 11 -53 52 -100 l39 -43 22 23 c26 29 26 47 -2
80 -36 43 -96 64 -111 40z"/>
<path d="M5128 1035 c-15 -16 80 -145 105 -145 15 0 36 33 37 55 0 37 -51 86
-95 92 -22 2 -43 2 -47 -2z"/>
<path d="M5668 988 c-8 -13 -18 -37 -21 -55 -5 -27 -3 -32 16 -36 l22 -4 -22
-2 c-28 -1 -30 -22 -4 -45 23 -21 33 -10 55 56 15 43 15 48 -1 77 -21 37 -26
38 -45 9z"/>
<path d="M4244 601 c-51 -13 -58 -20 -38 -42 37 -41 189 -54 232 -21 22 17 23
18 4 35 -18 17 -105 38 -146 36 -11 -1 -35 -4 -52 -8z"/>
<path d="M3154 425 c-10 -8 -28 -15 -40 -15 -12 0 -42 -16 -68 -36 -41 -31
-45 -37 -35 -57 29 -56 86 -87 104 -57 3 6 18 8 32 5 31 -5 101 23 124 51 41
48 25 95 -36 109 -16 4 -37 9 -46 11 -8 2 -24 -3 -35 -11z"/>
<path d="M8969 5290 c-187 -18 -411 -86 -626 -191 -370 -179 -580 -367 -804
-719 -113 -178 -220 -404 -248 -526 -9 -37 -19 -54 -35 -62 -22 -10 -46 -62
-77 -170 -11 -39 -11 -44 11 -67 21 -22 25 -39 31 -143 8 -130 6 -136 -51
-160 -73 -30 -101 -61 -156 -176 -29 -61 -62 -147 -73 -191 -38 -150 -53 -210
-56 -222 -2 -6 -64 -25 -137 -42 -142 -34 -292 -80 -373 -116 -80 -35 -127
-95 -155 -196 -20 -77 -22 -97 -16 -229 4 -80 6 -161 5 -180 -1 -19 -1 -46 0
-60 6 -87 11 -580 6 -607 -4 -21 -34 -65 -87 -125 -44 -51 -90 -107 -102 -124
-11 -18 -39 -57 -61 -88 -22 -32 -51 -75 -65 -96 -14 -21 -46 -67 -71 -101
-157 -219 -237 -345 -323 -505 -53 -100 -96 -184 -96 -188 0 -3 656 -6 1459
-6 l1459 0 7 38 c14 81 80 194 163 281 72 74 82 89 101 154 11 40 21 88 21
107 0 20 4 40 8 45 5 6 19 53 31 105 12 52 29 123 37 158 23 97 85 224 101
208 3 -3 -4 -18 -15 -33 -24 -34 -72 -136 -72 -155 0 -7 -16 -76 -36 -153 -20
-77 -38 -153 -40 -170 -3 -16 -15 -67 -27 -113 -21 -79 -25 -86 -98 -163 -81
-84 -151 -200 -164 -271 l-7 -38 878 1 879 1 132 141 c261 282 296 321 339
379 24 33 44 71 44 83 0 33 -33 104 -69 149 -17 21 -31 44 -31 51 0 6 11 44
25 85 36 105 42 209 17 287 -11 34 -33 79 -49 100 -57 72 -56 61 -34 341 12
141 28 331 37 422 9 91 20 264 24 385 l8 220 -3 -225 c-2 -124 -11 -297 -19
-385 -9 -88 -25 -274 -36 -413 -22 -276 -24 -262 36 -340 70 -92 80 -236 27
-398 l-26 -82 36 -42 c43 -51 71 -128 63 -173 -9 -50 -147 -212 -410 -484
l-100 -103 1142 0 c628 0 1142 3 1142 6 0 3 -16 22 -36 42 -19 20 -56 68 -81
106 -48 71 -157 172 -253 233 -30 20 -71 50 -91 67 -20 17 -60 47 -89 66 -29
19 -85 63 -126 98 -40 34 -76 62 -79 62 -14 0 -146 87 -205 135 -36 29 -90 70
-121 92 -31 21 -80 57 -111 80 l-55 41 -6 149 c-3 100 -2 150 6 155 5 3 25 4
43 1 49 -8 223 49 256 84 41 42 76 131 98 251 24 127 30 148 65 230 52 125 69
228 69 437 1 182 0 193 -25 260 -15 39 -32 99 -39 134 -12 68 -37 125 -75 176
-12 17 -27 47 -34 67 -15 45 -71 93 -135 114 -69 24 -70 25 -55 171 13 126 14
129 47 159 l34 31 -32 104 c-32 103 -51 139 -76 139 -18 0 -24 13 -39 84 -38
180 -192 499 -339 701 -78 108 -187 234 -259 300 -80 74 -216 182 -243 191
-10 4 -32 17 -48 28 -42 30 -170 102 -244 136 -127 60 -338 121 -536 155 -94
16 -459 19 -607 5z m502 -10 c238 -24 490 -95 690 -195 131 -65 182 -95 175
-102 -3 -3 -31 11 -63 30 -209 126 -469 214 -748 253 -27 3 -133 10 -235 14
-184 7 -184 7 -54 8 73 1 178 -3 235 -8z m-411 -7 c-276 -27 -460 -79 -710
-202 -232 -115 -381 -222 -540 -387 -185 -193 -336 -432 -452 -718 -40 -99
-44 -138 -14 -149 11 -4 20 9 32 46 9 29 23 61 29 72 7 11 23 52 35 90 21 70
140 316 166 346 8 8 14 21 14 27 0 27 165 234 261 329 154 150 268 228 484
330 254 120 331 146 545 182 252 43 502 38 768 -15 119 -24 318 -81 310 -90
-3 -2 -37 7 -77 21 -248 84 -585 121 -852 95 -248 -25 -428 -77 -674 -193
-293 -139 -524 -331 -697 -578 -76 -110 -181 -307 -227 -429 -18 -47 -44 -114
-58 -149 -17 -45 -22 -66 -14 -74 8 -8 11 -5 11 9 0 23 58 149 66 141 3 -3 -8
-32 -25 -66 -38 -74 -41 -104 -9 -92 12 4 25 19 29 32 4 13 15 52 25 87 9 35
21 65 25 68 4 2 0 -22 -10 -53 -10 -32 -24 -77 -30 -99 -9 -34 -16 -43 -39
-47 -15 -3 -33 0 -40 5 -9 8 -16 6 -27 -8 -9 -12 -14 -14 -15 -6 0 7 -4 10
-10 7 -18 -11 -10 -22 31 -41 40 -18 42 -18 55 1 12 17 14 17 14 2 0 -9 -4
-17 -9 -17 -5 0 -14 -12 -20 -27 -7 -18 -10 -20 -7 -7 3 17 -6 26 -39 42 -38
18 -43 25 -49 65 -6 38 -1 60 28 134 176 451 430 776 786 1008 96 63 355 187
465 223 148 50 355 91 445 90 32 -1 40 -3 20 -5z m460 -47 c231 -32 392 -79
590 -175 132 -63 226 -116 286 -161 25 -19 65 -48 88 -65 130 -93 335 -332
444 -518 101 -172 209 -420 242 -557 17 -69 27 -81 46 -56 12 18 14 18 14 3 0
-24 -46 -45 -63 -28 -9 10 -8 11 8 5 18 -7 18 -6 6 9 -7 9 -17 15 -21 12 -23
-15 -60 18 -98 88 -23 41 -57 96 -78 122 -42 55 -68 111 -58 126 3 6 -4 21
-16 34 -18 19 -22 32 -17 61 5 32 2 40 -39 84 -25 27 -49 61 -53 77 -5 18 -21
36 -46 50 -21 12 -45 32 -53 45 -8 13 -41 44 -74 67 -33 25 -70 63 -85 89 -47
80 -134 153 -266 223 -51 27 -85 49 -77 49 8 0 52 -20 98 -45 122 -66 209
-140 255 -217 15 -26 52 -64 86 -89 33 -24 66 -55 73 -67 7 -13 26 -31 43 -39
44 -22 64 -43 58 -58 -2 -8 17 -37 43 -65 43 -46 48 -56 47 -93 -2 -44 7 -61
48 -86 31 -19 89 -93 118 -150 12 -22 25 -43 31 -46 6 -4 18 -25 27 -48 9 -22
18 -36 20 -30 8 23 -65 205 -147 368 -141 277 -309 495 -498 647 l-63 51 -92
0 -92 0 85 6 85 6 -45 31 c-75 53 -155 92 -171 85 -8 -4 -50 -4 -94 0 l-80 7
80 0 c44 0 87 1 95 1 8 1 -34 27 -93 57 -283 144 -565 201 -931 191 -330 -9
-502 -54 -828 -214 -127 -62 -154 -81 -100 -69 27 6 27 6 -4 -12 -47 -26 -183
-125 -237 -172 -46 -41 -47 -41 -27 -62 11 -12 16 -26 13 -31 -3 -6 -10 -1
-14 10 -18 50 -32 39 -178 -135 -33 -41 -61 -70 -61 -65 0 14 99 130 191 223
46 47 130 118 187 159 57 40 101 76 98 78 -13 14 -205 -135 -312 -241 -103
-104 -197 -223 -187 -240 3 -6 3 -8 -1 -4 -9 8 -66 -54 -67 -73 0 -10 -2 -10
-5 -2 -5 12 61 109 150 222 115 144 346 327 521 413 263 129 459 190 710 221
81 10 390 5 485 -7z m-120 -97 c239 -6 449 -15 465 -20 27 -8 26 -8 -10 -4
-22 2 -260 9 -530 15 -586 13 -649 16 -485 18 69 1 321 -3 560 -9z m881 -135
c272 -157 466 -348 665 -660 84 -130 244 -494 244 -553 0 -9 7 -26 16 -37 14
-18 15 -16 9 25 -14 107 -145 396 -264 586 -83 131 -172 245 -290 369 -104
109 -97 114 9 6 214 -217 373 -464 488 -757 77 -196 89 -253 53 -250 -15 1
-22 11 -27 41 -24 143 -197 505 -328 684 -108 150 -268 321 -364 390 -28 20
-66 49 -84 63 -42 34 -213 132 -284 164 -30 13 -54 26 -54 29 0 9 121 -49 211
-100z m-911 26 c228 -23 425 -67 521 -115 47 -24 86 -33 244 -56 44 -7 84 -15
88 -19 7 -6 -41 0 -223 30 -41 6 -95 23 -119 36 -93 51 -299 95 -546 116 -137
11 -309 4 -515 -21 -107 -13 -306 -86 -524 -192 -104 -51 -120 -61 -155 -96
-17 -17 -64 -53 -104 -79 -78 -52 -119 -84 -200 -156 -29 -26 -75 -57 -102
-70 -28 -12 -54 -24 -59 -26 -5 -3 -5 1 -1 8 4 6 28 21 53 31 26 11 70 41 99
67 81 72 122 104 200 156 40 26 87 62 104 79 18 18 44 39 60 47 140 75 351
165 494 210 149 47 476 71 685 50z m-692 -17 c-15 -2 -42 -2 -60 0 -18 2 -6 4
27 4 33 0 48 -2 33 -4z m-124 -28 c4 -11 -10 -22 -50 -40 -31 -14 -60 -25 -64
-25 -5 0 -11 -5 -13 -10 -3 -6 -4 -5 -3 2 1 7 30 24 64 37 66 26 72 41 17 41
-28 0 -44 -9 -82 -48 -29 -29 -57 -48 -70 -48 -12 0 -19 4 -16 9 3 5 11 6 18
3 8 -3 30 14 51 37 44 49 56 55 105 56 24 1 39 -4 43 -14z m1393 5 c59 -10
140 -46 128 -58 -3 -3 -18 4 -33 15 -35 26 -72 34 -197 43 -93 7 -95 7 -30 8
39 1 98 -3 132 -8z m283 -45 c-16 -19 -64 -45 -82 -45 -7 0 1 8 19 16 17 9 39
24 49 35 20 23 33 17 14 -6z m234 -29 c72 -51 113 -95 46 -49 -61 42 -124 93
-115 93 4 0 35 -20 69 -44z m-2175 -20 c1 -5 -5 -3 -13 4 -8 6 -12 19 -9 27 6
14 8 14 14 -3 4 -10 8 -23 8 -28z m1814 7 c-13 -2 -35 -2 -50 0 -16 2 -5 4 22
4 28 0 40 -2 28 -4z m-1809 -39 c5 -14 4 -15 -9 -4 -17 14 -19 20 -6 20 5 0
12 -7 15 -16z m2032 -49 c33 -10 52 -22 60 -38 10 -22 9 -24 -10 -19 -30 8
-73 32 -58 32 7 0 22 -5 33 -10 11 -7 19 -7 19 -1 0 5 -26 18 -57 29 -68 24
-59 29 13 7z m-170 -40 c32 -14 94 -50 139 -80 45 -30 88 -55 96 -55 15 -1 25
-7 79 -53 18 -15 30 -30 27 -34 -3 -3 -20 8 -37 25 -16 17 -30 28 -30 25 0 -3
-8 0 -17 8 -10 8 -36 23 -58 33 -21 10 -56 31 -76 47 -20 16 -71 45 -113 65
-67 32 -87 44 -71 44 2 0 30 -11 61 -25z m84 -8 c25 -12 48 -22 52 -22 3 0 10
-3 14 -7 15 -15 -17 -8 -58 13 -23 12 -58 28 -77 35 -33 13 -33 14 -6 9 17 -4
50 -16 75 -28z m240 6 c-73 -12 -59 -34 28 -45 l57 -6 -63 2 c-67 2 -86 13
-76 39 4 12 17 17 43 16 26 -1 29 -3 11 -6z m159 -129 c3 -2 -26 -3 -64 -2
-37 1 -60 5 -49 8 18 7 104 2 113 -6z m26 -44 c30 -6 21 -7 -35 -3 -41 3 -77
7 -79 9 -8 7 74 3 114 -6z m-2755 -10 c-8 -5 -24 -9 -35 -9 -16 1 -16 2 5 9
35 11 48 11 30 0z m2889 -126 c8 -7 -63 -2 -94 7 -20 5 -9 6 30 2 33 -3 62 -7
64 -9z m-3155 -148 c-3 -16 -19 -49 -35 -74 -16 -25 -29 -55 -29 -66 0 -15
-50 -104 -87 -155 -2 -2 -5 -2 -8 1 -3 2 13 33 35 67 23 35 48 84 57 110 8 25
25 59 36 75 12 17 20 44 20 64 -1 24 2 31 8 21 5 -8 6 -27 3 -43z m-98 -130
c-39 -79 -73 -142 -75 -140 -8 7 132 284 143 284 1 0 -29 -65 -68 -144z m3330
109 c25 -19 14 -19 -22 0 -16 8 -22 15 -13 15 8 0 24 -7 35 -15z m65 -75 c6 0
7 -5 4 -10 -11 -17 -25 0 -24 28 2 24 2 24 6 5 2 -13 9 -23 14 -23z m47 -97
c-10 -2 -28 -2 -40 0 -13 2 -5 4 17 4 22 1 32 -1 23 -4z m0 -260 c-3 -25 31
-135 47 -151 10 -11 17 -11 34 -3 11 7 21 8 21 3 0 -6 -10 -12 -22 -15 -18 -5
-19 -8 -8 -22 19 -23 6 -28 -15 -5 -22 24 -75 178 -68 197 7 18 13 16 11 -4z
m68 -120 c-3 -4 -13 10 -21 30 -21 51 -18 59 6 14 11 -22 18 -41 15 -44z m84
-85 c-14 -5 -33 -14 -44 -20 -14 -7 -17 -6 -14 4 3 7 18 16 34 19 44 10 52 9
24 -3z m-2098 -85 c-15 -30 10 -177 36 -212 12 -17 18 -31 13 -31 -22 0 -45
56 -56 138 -11 78 -7 122 11 122 2 0 1 -8 -4 -17z m-1668 -19 c3 -8 2 -12 -4
-9 -6 3 -10 -1 -10 -9 0 -10 6 -13 18 -10 14 5 15 4 2 -5 -8 -6 -18 -11 -21
-11 -12 0 -17 38 -6 49 14 14 14 14 21 -5z m65 -91 c0 -16 -5 -37 -10 -48 -6
-14 -7 -8 -3 23 4 26 2 42 -5 42 -5 0 -12 -17 -14 -37 l-4 -38 -1 43 c-2 36 1
42 18 42 15 0 20 -6 19 -27z m3843 -95 c-5 -7 -13 -44 -17 -83 -4 -38 -11 -75
-17 -82 -6 -8 -6 -19 1 -32 6 -11 11 -29 11 -40 0 -11 8 -24 17 -30 10 -5 15
-12 12 -16 -11 -10 -39 25 -39 49 0 12 -5 27 -12 34 -8 8 -9 18 -1 35 6 13 14
51 18 83 9 75 14 94 27 94 7 0 7 -4 0 -12z m-202 -83 c0 -8 6 -15 13 -15 6 0
4 -5 -6 -11 -24 -14 -47 -4 -47 21 0 13 7 20 20 20 11 0 20 -7 20 -15z m-3880
-75 c-11 -21 -25 -62 -31 -90 -6 -27 -15 -50 -21 -50 -6 0 -7 8 -3 18 4 9 11
34 16 54 11 47 40 108 51 108 5 0 -1 -18 -12 -40z m3934 31 c9 -14 -4 -41 -19
-41 -18 0 -26 15 -19 34 7 17 29 21 38 7z m-1941 -178 c-3 -21 -13 -45 -22
-53 -11 -10 -21 -46 -30 -105 -15 -106 -23 -133 -16 -55 11 123 18 155 37 168
10 7 18 22 18 32 0 19 10 50 15 50 2 0 1 -17 -2 -37z m-283 -95 c-17 -33 -51
-68 -66 -68 -7 0 -21 -15 -33 -32 -11 -18 -21 -26 -21 -18 1 21 25 51 52 64
13 6 34 28 47 49 26 40 40 44 21 5z m188 -15 c-29 -61 -38 -85 -47 -123 l-10
-45 6 50 c6 58 31 125 45 125 5 0 8 -3 6 -7z m-948 -32 c0 -6 -10 -21 -22 -36
-17 -19 -35 -26 -73 -30 l-50 -4 45 9 c30 6 53 19 70 39 28 33 30 35 30 22z
m-344 -104 l-47 -42 -2 -160 c-5 -373 3 -512 48 -872 36 -288 60 -369 193
-653 31 -67 53 -104 155 -253 15 -23 27 -48 27 -56 0 -8 -15 8 -32 36 -18 28
-55 83 -81 122 -26 39 -55 88 -64 109 -8 20 -33 75 -55 122 -82 174 -121 318
-153 573 -44 354 -52 491 -49 854 2 186 5 201 57 239 59 43 60 32 3 -19z m984
-2 c-7 -8 -17 -15 -22 -15 -6 0 -5 7 2 15 7 8 17 15 22 15 6 0 5 -7 -2 -15z
m685 -46 c-16 -27 -24 -34 -20 -19 8 30 35 74 41 67 2 -2 -7 -24 -21 -48z
m-818 -55 c-86 -89 -147 -137 -147 -115 0 5 8 12 18 15 10 4 60 49 111 101 50
52 96 95 101 95 5 0 -33 -43 -83 -96z m463 46 c-6 -11 -8 -20 -5 -20 11 0 -37
-74 -74 -113 -50 -54 -107 -91 -171 -112 -55 -19 -141 -28 -117 -13 6 4 23 8
37 8 73 1 171 52 242 127 37 39 78 108 78 130 0 7 5 13 10 13 7 0 7 -6 0 -20z
m1278 -66 c31 -19 54 -25 76 -21 17 2 40 1 51 -3 12 -5 -6 -7 -45 -6 -52 1
-73 7 -105 29 -51 34 -36 35 23 1z m-1378 -44 c-42 -78 -257 -150 -316 -105
-10 8 -14 15 -7 15 6 0 15 -5 19 -11 4 -7 28 -10 64 -7 68 5 170 51 214 97 34
36 41 39 26 11z m1340 -47 l-66 -15 -2 -62 c-3 -76 -11 -116 -23 -116 -6 0 -7
5 -3 11 7 12 17 108 16 150 -1 23 4 27 46 36 26 6 58 10 72 10 14 0 -4 -6 -40
-14z m-906 -35 c6 -30 7 -31 21 -12 8 10 15 14 15 8 0 -12 -28 -39 -34 -33 -2
2 -8 19 -13 38 l-9 35 -23 -38 c-24 -38 -41 -44 -22 -8 15 29 41 53 51 47 4
-2 10 -19 14 -37z m-1314 2 c67 -48 135 -70 206 -69 69 1 159 -14 179 -31 5
-4 26 -13 45 -19 l35 -11 -39 6 c-21 3 -48 11 -60 19 -29 18 -90 28 -163 26
-69 -2 -166 31 -218 74 -36 29 -25 33 15 5z m1080 -39 c-20 -55 -59 -121 -72
-121 -14 0 -8 12 22 47 17 18 30 40 30 48 0 16 32 87 37 82 1 -2 -6 -27 -17
-56z m1720 -220 c-17 -120 -35 -232 -41 -247 -8 -27 -9 -27 -4 6 31 204 65
456 67 487 1 37 1 37 5 5 3 -18 -10 -131 -27 -251z m349 75 c-11 -120 -39
-340 -44 -345 -7 -7 -6 12 11 139 8 63 18 162 21 220 4 58 9 94 12 81 4 -13 3
-56 0 -95z m-3155 60 c27 -8 87 -18 135 -21 134 -10 183 -13 217 -14 17 -1 41
-9 52 -19 18 -16 20 -24 12 -52 -5 -18 -17 -42 -27 -53 -18 -20 -17 -20 7 -12
14 5 44 8 67 7 27 -1 43 4 47 13 7 18 -22 47 -37 38 -19 -12 -36 -12 -43 -1
-3 5 2 8 12 7 11 -2 25 0 32 5 19 11 52 -22 48 -48 -3 -17 -11 -21 -47 -23
-59 -2 -132 -10 -169 -18 -58 -13 -114 21 -156 91 -11 18 -13 18 -54 -4 -51
-27 -65 -23 -18 5 62 36 66 36 93 -8 50 -78 129 -98 195 -50 31 23 48 75 30
96 -20 25 -59 19 -66 -10 -3 -14 -12 -25 -19 -25 -26 0 -44 12 -38 26 4 12 8
11 19 -3 12 -16 15 -16 24 -3 16 25 6 33 -46 36 -147 7 -228 17 -280 34 -33
10 -54 19 -48 19 6 1 32 -5 58 -13z m3190 -98 c-2 -104 -33 -300 -49 -316 -8
-8 0 44 24 148 10 46 16 112 16 170 -2 85 1 110 9 110 1 0 1 -51 0 -112z
m-1694 56 c96 -11 187 -10 235 4 81 23 115 24 50 2 -35 -12 -91 -21 -135 -23
-80 -2 -193 8 -210 18 -24 15 -92 7 -114 -14 -12 -12 -25 -18 -29 -15 -9 10
35 41 63 46 14 2 41 0 60 -4 19 -5 55 -11 80 -14z m175 -94 c44 -5 96 -12 116
-15 22 -4 39 -3 43 4 8 12 36 3 36 -11 0 -6 -6 -6 -14 1 -28 24 -25 -7 5 -40
36 -41 34 -62 -6 -65 -36 -2 -77 15 -69 28 3 5 14 2 23 -6 15 -14 56 -15 69
-1 3 2 -10 20 -29 40 -35 36 -79 47 -79 20 0 -8 -4 -15 -10 -15 -13 0 -13 17
1 26 19 11 -12 24 -58 24 -36 0 -43 -3 -43 -19 0 -11 4 -21 9 -23 5 -1 -2 -20
-16 -41 -31 -50 -80 -71 -151 -65 -43 4 -59 11 -88 39 -19 18 -37 44 -41 57
-5 21 -7 22 -29 7 -30 -19 -40 -19 -24 0 7 8 19 15 26 15 8 0 14 7 14 16 0 25
18 7 25 -26 3 -16 24 -45 46 -64 33 -31 46 -36 87 -36 55 0 104 26 125 67 23
45 7 69 -53 82 -76 16 -165 14 -184 -5 -14 -13 -16 -13 -16 0 0 8 8 17 18 20
20 6 150 -1 267 -14z m-169 -19 c-3 -5 1 -14 9 -21 13 -11 19 -7 17 12 -1 3 5
8 12 11 9 4 12 -2 8 -18 -3 -17 -9 -22 -25 -19 -22 4 -39 23 -31 36 3 4 7 8
10 8 3 0 3 -4 0 -9z m-151 -82 c20 -12 34 -24 31 -26 -6 -6 -63 24 -71 37 -9
15 0 12 40 -11z m393 -12 c12 -11 22 -25 22 -30 0 -6 -11 0 -25 13 -14 14 -38
30 -53 37 l-27 12 30 -6 c17 -3 40 -15 53 -26z m298 -552 c14 -9 23 -19 20
-22 -3 -4 -15 2 -27 13 -18 16 -35 19 -105 18 l-84 -2 -44 -45 c-39 -41 -42
-48 -29 -59 64 -52 257 -348 239 -365 -3 -3 -11 7 -18 23 -40 92 -183 293
-241 339 -21 16 -26 25 -16 25 9 0 33 19 53 42 29 32 48 43 80 49 64 10 144 3
172 -16z m-556 -90 c-7 -8 -18 -15 -26 -15 -16 0 -51 -48 -59 -83 -9 -32 9
-80 41 -112 34 -34 69 -110 98 -215 50 -176 55 -195 60 -245 l5 -50 -9 45
c-54 244 -107 393 -161 451 -66 71 -58 170 19 221 40 26 53 28 32 3z m-295
-157 c-3 -8 -31 -30 -62 -49 -30 -19 -85 -53 -120 -77 -36 -24 -67 -41 -70
-39 -5 6 106 87 120 87 15 0 127 82 127 93 0 6 2 8 5 5 3 -3 3 -12 0 -20z
m-491 -87 c14 -14 26 -29 26 -35 0 -19 52 -65 69 -59 15 4 15 3 0 -9 -9 -7
-21 -24 -28 -36 -7 -13 -15 -21 -18 -19 -2 3 0 15 7 26 12 23 5 35 -67 120
-18 21 -33 47 -32 57 0 18 1 18 9 -1 4 -11 20 -31 34 -44z m683 29 c18 -10 43
-36 57 -57 41 -63 124 -347 140 -483 5 -41 4 -42 -4 -10 -5 19 -18 80 -30 135
-27 127 -75 278 -106 331 -13 23 -38 54 -55 68 -65 55 -231 18 -287 -65 -22
-31 -23 -41 -18 -104 29 -310 27 -411 -10 -501 -12 -28 -57 -54 -71 -41 -2 3
7 7 21 11 31 8 49 42 65 121 11 57 7 171 -14 410 -9 97 9 129 94 173 79 39
165 44 218 12z m-447 -477 c-5 -21 -12 -105 -15 -188 -4 -82 -11 -157 -16
-165 -8 -12 -9 -11 -5 5 3 11 8 81 11 155 5 131 13 207 22 223 9 16 10 5 3
-30z"/>
<path d="M10936 4031 c-9 -15 9 -51 56 -114 25 -32 59 -87 78 -123 37 -73 75
-108 91 -83 5 8 7 20 4 27 -3 8 -5 18 -5 23 0 4 -6 6 -14 3 -9 -4 -18 6 -25
29 -7 19 -21 43 -31 52 -11 10 -20 24 -20 30 0 15 -97 147 -115 158 -8 4 -16
3 -19 -2z m194 -296 c0 -5 -5 -3 -10 5 -5 8 -10 20 -10 25 0 6 5 3 10 -5 5 -8
10 -19 10 -25z"/>
<path d="M11052 3268 c2 -6 10 -14 16 -16 7 -2 10 2 6 12 -7 18 -28 22 -22 4z"/>
<path d="M11106 3221 c-4 -5 -2 -12 3 -15 5 -4 12 -2 15 3 4 5 2 12 -3 15 -5
4 -12 2 -15 -3z"/>
<path d="M12745 2344 c-11 -2 -111 -5 -222 -6 -191 -3 -204 -4 -224 -24 -21
-22 -21 -22 -10 -300 14 -333 12 -326 112 -334 35 -3 139 -4 232 -2 l167 3 0
78 0 77 -92 -4 c-51 -2 -99 -5 -105 -7 -17 -6 -17 -69 0 -83 6 -6 28 -12 47
-15 34 -4 33 -4 -7 -5 -50 -2 -66 18 -61 76 l3 37 105 6 c120 7 110 6 110 20
0 7 -63 9 -212 4 -129 -4 -218 -2 -227 3 -16 12 -24 62 -9 62 6 0 7 -7 4 -16
-17 -45 21 -50 302 -37 140 6 142 6 142 30 l0 23 -212 0 c-117 0 -218 4 -225
8 -6 4 90 6 213 4 201 -3 224 -2 224 13 0 14 -22 16 -202 14 -112 0 -215 2
-230 6 -30 8 -44 36 -30 61 8 15 35 17 236 16 193 -1 226 1 226 13 0 13 -32
15 -210 15 -223 0 -261 6 -259 44 0 15 2 17 6 6 14 -36 34 -39 251 -40 l212 0
0 40 0 39 -202 -5 c-112 -3 -218 -7 -237 -9 -18 -2 -32 -3 -30 -2 2 1 15 11
28 22 14 11 21 14 17 8 -8 -15 171 -18 332 -7 163 12 98 24 -127 24 -121 0
-226 3 -235 6 -19 7 -22 67 -3 82 14 12 107 21 100 10 -2 -5 -21 -8 -42 -8
-44 0 -64 -18 -59 -52 l3 -23 228 -3 228 -2 -3 42 -3 43 -160 -1 c-88 -1 -151
2 -140 5 11 4 84 7 162 6 142 0 143 0 143 23 0 22 -7 24 -55 16z m-310 -516
l50 -3 3 -44 c4 -53 -5 -64 -55 -64 -71 0 -83 9 -83 59 0 24 5 44 10 44 6 0 9
3 9 8 -3 17 2 26 9 15 4 -6 30 -13 57 -15z"/>
<path d="M12364 1806 c-3 -8 -4 -27 -2 -42 2 -23 9 -30 37 -35 19 -4 45 -3 58
2 21 8 24 15 21 46 l-3 38 -53 3 c-39 2 -54 -1 -58 -12z"/>
<path d="M12344 2026 c-14 -44 30 -52 269 -48 l187 3 0 29 c0 17 -5 30 -12 30
-425 6 -438 6 -444 -14z"/>
<path d="M12750 1540 c0 -5 4 -10 9 -10 5 0 16 -3 25 -6 11 -4 16 -1 16 10 0
10 -9 16 -25 16 -14 0 -25 -4 -25 -10z"/>
<path d="M5586 782 c-9 -10 -13 -21 -10 -25 7 -7 64 20 64 30 0 3 -3 3 -7 0
-3 -4 -12 -2 -18 3 -8 7 -17 4 -29 -8z"/>
<path d="M3664 45 c-17 -7 -34 -20 -37 -29 -6 -14 7 -16 113 -16 66 0 120 2
120 5 0 3 -10 16 -22 30 -22 25 -52 33 -62 16 -5 -8 -60 -6 -74 3 -4 2 -21 -2
-38 -9z"/>
</g>
</svg>
